<svg xmlns="http://www.w3.org/2000/svg" viewBox="0 0 220 64" role="img" aria-label="IOBEWI">
  <defs>
    <linearGradient id="logoGradient" x1="0" y1="0" x2="1" y2="1">
      <stop offset="0%" stop-color="#1d4ed8"/>
      <stop offset="100%" stop-color="#1e3a8a"/>
    </linearGradient>
  </defs>
  <rect x="2" y="2" width="60" height="60" rx="14" fill="url(#logoGradient)"/>
  <path d="M22 42V22h6v20h-6zm18-20c5.5 0 9 3.9 9 9.9 0 6-3.5 10.1-9 10.1s-9-4.1-9-10.1c0-6 3.5-9.9 9-9.9zm0 5.2c-2.3 0-3.6 1.9-3.6 4.7 0 2.9 1.3 4.8 3.6 4.8 2.3 0 3.6-1.9 3.6-4.8 0-2.8-1.3-4.7-3.6-4.7z" fill="#ffffff"/>
  <text x="78" y="42" font-family="'Segoe UI', Arial, sans-serif" font-size="32" font-weight="700" fill="#1f2933">IOBEWI</text>
</svg>
