<svg 
     xmlns="http://www.w3.org/2000/svg"
     width="881"
     height="2194"
     viewBox="0 0 881 2194">
  <g transform="translate(881, 0) rotate(90)">
     class="pcb-pattern"
     aria-hidden="true">

  <g stroke="currentColor"
     fill="none"
     stroke-width="1"
     opacity="1">
    <path
       fill="#ffffff"
       d="M 0,744.33432 C 0,620.23097 0.14416341,607.84134 1.5817875,608.39301 c 0.8699831,0.33385 45.9824835,0.61121 100.2500025,0.61637 l 98.66821,0.009 -5.5,3.15139 c -6.74531,3.86493 -16.66665,13.64826 -20.49535,20.21027 -17.75783,30.43508 -6.31147,68.95602 24.99535,84.11795 9.21474,4.46271 15.0038,5.70926 26.56296,5.71977 7.98355,0.007 10.96371,-0.47412 18.04417,-2.91465 7.62499,-2.62822 15.77561,-7.21406 21.43097,-12.05787 4.26587,-3.6537 10.58575,-12.70293 14.36583,-20.56996 3.55351,-7.39549 5.46322,-9.70139 20.01223,-24.16395 L 316,646.52344 v 117.1751 117.17509 l -158,0.004 -158,0.005 z m 97.5,55.59685 c 21.08181,-7.8339 33.5,-25.62984 33.5,-48.00734 0,-20.14959 -10.40774,-36.7614 -28.46627,-45.43508 -33.913954,-16.28918 -72.5855,8.22458 -72.521861,45.97135 0.03923,23.27215 15.801655,43.21586 38.769775,49.05421 7.906195,2.0097 20.990748,1.2884 28.718356,-1.58314 z M 79,780 c 0,-1.1 0.172516,-2 0.383369,-2 0.210852,0 0.618724,0.9 0.90638,2 0.287656,1.1 0.115141,2 -0.383369,2 C 79.407871,782 79,781.1 79,780 Z m -15.8,-3.2 c -1.293711,-1.29371 -1.571048,-4.66949 -0.593011,-7.21821 C 63.467357,767.3397 72,767.32662 72,769.56739 c 0,1.13051 -0.577577,1.38407 -2.072172,0.9097 C 66.723742,769.46016 63,770.76896 63,772.91206 c 0,1.03068 0.675,2.13298 1.5,2.44957 1.559398,0.59839 2.100634,2.63837 0.7,2.63837 -0.44,0 -1.34,-0.54 -2,-1.2 z M 95,772.92668 c 0,-4.29137 0.269731,-5.02223 1.75,-4.74181 C 100.06119,768.81212 99.244497,778 95.877555,778 95.3949,778 95,775.717 95,772.92668 Z M 81.119373,766.74232 C 79.589384,762.24916 76.891883,760.45231 74,762 c -1.435468,0.76824 -2.594253,0.75233 -4.105297,-0.0563 -3.169733,-1.69639 -8.339885,-0.2684 -11.784545,3.25488 l -3.071955,3.14207 -2.136165,-4.82916 C 50.112399,757.205 50.534472,744.64607 53.742607,738.5 57.636088,731.04095 66.712738,724.20102 74.75,722.66935 c 3.21786,-0.61322 3.25,-0.58071 3.25,3.28826 0,2.96628 -0.459542,4.05347 -1.907619,4.51307 -2.624654,0.83303 -3.314078,3.16477 -1.478463,5.00038 3.518969,3.51897 15.279996,1.02202 13.766274,-2.92268 -0.294156,-0.76656 -1.175036,-1.63941 -1.957511,-1.93968 C 85.52463,730.26409 85,728.60588 85,726.11199 v -3.95078 l 3.75,1.00954 c 15.39355,4.14408 25.15273,21.29891 20.75453,36.48261 -2.31538,7.99329 -3.24175,8.95042 -5.67222,5.86058 -2.40559,-3.05821 -8.649557,-5.0531 -12.491717,-3.99099 -1.562326,0.43189 -3.836967,0.68581 -5.054758,0.56428 -2.196985,-0.21925 -2.521223,0.36688 -3.547442,6.41277 -0.25335,1.49259 -0.664102,1.04666 -1.61902,-1.75768 z M 320,761.67441 v -119.1883 l 26.75,-26.63757 C 361.4625,601.19787 374.48292,588.7135 375.68426,588.10548 377.18902,587.3439 392.7879,587 425.82727,587 479.05767,587 475,587.55975 475,580.21664 c 0,-3.55673 0.653,-2.96611 37.48745,33.90637 l 37.48744,37.52615 0.26256,114.61054 0.26255,114.61055 -60.5531,0.0148 -60.55311,0.0148 0.16072,-3.69994 c 0.0884,-2.03497 0.46663,-4.40586 0.84053,-5.26866 0.37389,-0.86279 0.43708,-11.88779 0.14041,-24.5 -0.29668,-12.6122 -0.65014,-28.10628 -0.78549,-34.43128 -0.13534,-6.325 0.22979,-13.3 0.81141,-15.5 3.3775,-12.77561 -8.49669,-24.5595 -21.45881,-21.29561 -5.90137,1.48599 -11.42448,7.04564 -12.92695,13.01249 -0.9292,3.69019 -0.84958,5.51797 0.42774,9.81918 1.22376,4.12084 1.42057,7.61758 0.8935,15.87446 -0.85056,13.32458 -1.08834,56.1874 -0.34282,61.79592 l 0.55915,4.20643 -38.85659,-0.0251 L 320,880.8627 Z m 81,115.78988 V 874 h 12.40102 12.40103 l -0.0982,3.46429 -0.0982,3.46428 H 413.30282 401 Z m 165.41627,1.89332 C 566.73732,878.52096 567,830.76031 567,773.22282 v -104.6136 l 12.9847,13.03514 12.9847,13.03513 0.2653,93.09976 0.2653,93.09976 -13.83373,-1.1e-4 c -11.97139,-1e-4 -13.75515,-0.2049 -13.25,-1.52129 z m 43.35069,-82.09057 c 0.14682,-45.99886 0.4875,-83.85484 0.75707,-84.1244 0.26956,-0.26956 6.32422,5.32557 13.4548,12.43362 l 12.96469,12.92374 0.0282,65.45094 0.0282,65.45093 5.88298,5.72103 5.88298,5.72102 -19.63298,0.0287 -19.63298,0.0287 z m 59.49542,82.27395 c -0.41931,-0.72913 -4.24988,-5.02736 -8.51238,-9.55163 L 653,861.76341 V 808.8817 c 0,-29.08493 0.3375,-52.87434 0.75,-52.86534 0.4125,0.009 6.4875,5.79325 13.5,12.85387 L 680,781.70774 v 29.34493 29.34492 l 20.25,20.23969 20.25,20.23969 -25.23762,-0.005 c -19.90422,-0.004 -25.39873,-0.28531 -26,-1.33083 z m 50.96322,-22.5447 -23.27441,-23.62853 0.27441,-17.11764 0.2744,-17.11764 40.8656,40.86555 40.8656,40.86554 -17.8656,-0.11938 L 743.5,880.62482 Z M 785.17462,835.67466 740,790.49185 V 671.24592 552 h 13.5 13.5 v 115.24807 115.24807 l 49.25,49.19618 49.25,49.19617 -17.57538,-0.0155 -17.57537,-0.0155 z m 101.70696,44.51295 c -0.0651,-0.37818 -0.0928,-0.94196 -0.0616,-1.25283 0.0312,-0.31088 -23.09046,-23.70924 -51.38158,-51.99636 L 784,775.50728 V 663.75364 552 h 13 13 v 99.56574 c 0,70.65858 0.3206,100.1999 1.10425,101.75 1.56985,3.10521 101.8341,103.51545 105.09609,105.2491 C 918.52193,859.7987 948.61052,860 1130.7182,860 h 211.8175 l 10.4053,10.44084 10.4054,10.44085 -238.1732,-0.003 c -130.99527,-0.002 -238.22649,-0.31266 -238.29162,-0.69085 z m 521.00002,-0.003 c -0.065,-0.37651 -0.087,-0.95778 -0.048,-1.2917 0.039,-0.33392 -7.9466,-8.54642 -17.7456,-18.25 C 1375.2384,845.93734 1371.7893,843 1369.3722,843 c -2.3915,0 -5.2624,-2.36725 -16.3722,-13.5 L 1339.5278,816 h 34.4359 34.436 l 32.5342,32.25 c 17.8939,17.7375 32.7,32.3335 32.9024,32.43556 0.2025,0.10206 -14.5278,0.18512 -32.7341,0.18457 -18.2062,-5.4e-4 -33.1555,-0.30904 -33.2206,-0.68556 z m 86.2024,-0.99893 c -0.9768,-1.7454 -66.1828,-67.40907 -74.7312,-75.25561 l -5.1471,-4.72461 -45.3529,0.50117 L 1323.5,800.2078 1310.0139,786.60392 1296.5278,773 h 36.6136 c 31.3256,0 36.7935,0.21665 37.8586,1.5 0.6847,0.825 1.8648,1.5 2.6224,1.5 0.7577,0 1.3776,0.49513 1.3776,1.10028 0,0.60516 1.9909,3.11972 4.4242,5.58792 4.944,5.01478 8.0758,5.48009 8.0758,1.19985 0,-1.41267 0.6479,-3.35193 1.4398,-4.30947 1.143,-1.38207 1.1946,-2.13376 0.25,-3.64621 -0.6544,-1.04788 -1.1898,-2.13634 -1.1898,-2.4188 0,-0.73711 37.1385,-0.63586 40.875,0.11143 2.086,0.4172 3.125,1.21284 3.125,2.39301 0,2.52973 3.1683,3.47233 4.6876,1.39461 0.6821,-0.93293 1.4063,-2.19493 1.6092,-2.80443 0.2628,-0.78918 16.9129,-1.19319 57.8401,-1.40348 l 57.4711,-0.29529 1.946,2.17158 1.946,2.17159 -13.2932,12.75258 c -15.0905,14.47676 -16.2162,16.6449 -12.2806,23.65252 1.8653,3.3214 2.1183,5.13024 1.8658,13.34231 l -0.292,9.5 -3.1755,0.3078 c -1.7466,0.1693 -3.6772,0.91229 -4.2904,1.65111 -1.7138,2.06498 -1.9118,33.03607 -0.2221,34.72765 0.9715,0.97249 4.8782,1.27565 15.05,1.16785 l 13.738,-0.14559 V 877.60441 881 h -12.3 -12.3 v -2.5 c 0,-1.83333 -0.5333,-2.5 -2,-2.5 -1.4638,0 -2,0.66667 -2,2.48679 v 2.4868 l -15.5036,-0.0821 c -13.2108,-0.0699 -15.638,-0.32222 -16.4124,-1.70588 z m 64.3538,-2.10615 c 0.034,-2.15257 0.3997,-4.25105 0.8122,-4.66329 1.1537,-1.15297 0.8971,-31.27274 -0.2852,-33.48194 -0.7177,-1.34099 -2.0979,-1.93426 -4.5,-1.93426 H 1551 v -10.06982 c 0,-9.50464 0.1638,-10.30445 2.9185,-14.25 1.6051,-2.2991 6.5541,-7.76865 10.9978,-12.15457 8.043,-7.93844 8.0883,-7.96548 10.0509,-6 1.8903,1.89304 1.9831,3.71194 2.2522,44.14419 l 0.2806,42.1698 -9.5622,0.0768 -9.5623,0.0768 z m 39.8122,1.79841 -4.25,-1.95358 v -43.32137 -43.32137 l -4.1284,-4.89079 c -2.2706,-2.68993 3.8204,3.07151 13.5356,12.80321 l 17.664,17.69401 -0.2856,10.29427 c -0.2612,9.4142 -0.4566,10.31997 -2.2856,10.59493 -1.1,0.16536 -3.0715,0.53151 -4.381,0.81366 l -2.381,0.513 0.4567,21.44806 0.4568,21.44807 -5.0758,-0.0843 c -2.7916,-0.0463 -6.9882,-0.96337 -9.3257,-2.03784 z m 18.556,-1.41361 -0.4044,-3.46429 12.5492,0.003 12.5492,0.003 0.073,3.46134 0.074,3.46134 h -12.2183 -12.2183 z m 28.9524,-1.21738 c 1.124,-11.79182 1.2851,-35.2971 0.2551,-37.22175 -0.7682,-1.43534 -2.093,-2.02516 -4.5487,-2.02516 -2.0344,0 -3.5196,-0.51604 -3.5975,-1.25 -0.9098,-8.57103 -0.5621,-18.28623 0.7249,-20.25032 2.8886,-4.40858 3.3142,-7.99296 1.4447,-12.16845 -0.964,-2.15328 -2.8742,-4.6498 -4.2447,-5.54783 C 1631.7302,795.12196 1605,768.1926 1605,766.76188 c 0,-0.72351 3.1494,-4.4407 6.9986,-8.26042 l 6.9985,-6.94495 22.4807,22.47177 22.4806,22.47176 0.2708,42.1698 0.2708,42.1698 -9.597,0.0771 -9.5971,0.0771 z m 35.0216,-39.85232 c 0.154,-24.45571 -0.098,-45.13953 -0.5589,-45.96405 -0.4615,-0.82452 -11.8172,-12.5272 -25.2351,-26.00595 l -24.3961,-24.50682 15.9551,-15.94101 15.955,-15.94101 34.3249,34.31866 34.3248,34.31867 -8.8248,9.23224 c -4.8537,5.07773 -10.2983,10.14473 -12.0991,11.26 -6.1628,3.81663 -7.9885,11.43129 -4.2221,17.60885 1.55,2.5421 1.9963,5.0392 1.9963,11.16821 0,10.12775 -0.3895,11.05762 -4.6317,11.05762 -2.8068,0 -3.6044,0.4907 -4.4613,2.74466 -0.9703,2.55195 -0.7215,24.34819 0.4164,36.49108 l 0.4438,4.73573 -9.6336,-0.056 -9.6336,-0.056 z m 22.6466,41.07028 0.073,-3.45898 h 12.5 12.5 l 0.074,3.46618 0.074,3.46618 -12.6472,-0.007 -12.6472,-0.007 z m 29.0217,-18.21487 0.052,-21.75 -4,-0.5 -4,-0.5 -0.2894,-9.38944 c -0.2663,-8.64274 -0.09,-9.67656 2.2162,-13 4.3189,-6.22367 15.4297,-16.65592 16.0217,-15.04328 0.2893,0.78799 0.6442,19.54543 0.7887,41.68318 l 0.2628,40.25046 -5.5517,-4.6e-4 -5.5518,-4.6e-4 z m 12.9447,20.16821 c 0.3339,-0.86998 0.607,-20.66998 0.607,-44 0,-26.94485 0.3564,-42.41821 0.9769,-42.41821 0.5374,0 1.6478,1.02378 2.4677,2.27507 1.2486,1.9056 1.5365,9.05118 1.773,44.00043 l 0.2824,41.72537 -3.357,-4.4e-4 c -2.6502,-3.4e-4 -3.2292,-0.33346 -2.75,-1.58222 z m 22.3867,-43.50958 0.2796,-44.93088 -4.6665,-4.98888 C 1760.8262,783.24499 1759.131,781 1759.6257,781 c 1.0527,0 29.0535,28.14386 32.2202,32.38486 1.8814,2.51961 2.1541,4.19719 2.1541,13.25 V 837 h -3.4648 c -2.4021,0 -3.7823,0.59327 -4.5,1.93426 -1.1823,2.2092 -1.4389,32.32897 -0.2852,33.48194 0.4125,0.41224 0.778,2.51072 0.8122,4.66329 l 0.062,3.91377 -9.5623,-0.0769 -9.5622,-0.0769 z M 1790.4,877.46429 V 874 h 12.3 12.3 v 3.46429 3.46428 h -12.3 -12.3 z m 29.3962,-17.20114 c 0.5041,-22.74559 0.4984,-22.77087 -5.2962,-23.42466 l -3,-0.33849 -0.2878,-9.87952 c -0.2431,-8.34787 -0.011,-10.18578 1.5,-11.85499 1.1849,-1.30923 1.7878,-3.56533 1.7878,-6.68958 v -4.71412 l -19.7867,-19.33082 c -15.0711,-14.72387 -20.2638,-20.43988 -21.7886,-23.98444 -1.3974,-3.24816 -5.7655,-8.40809 -14.4633,-17.08507 L 1746,730.53001 v -12.51093 -12.51093 l 46,45.99185 46,45.99185 v 40.09909 c 0,46.74548 0.9357,43.08726 -11.0825,43.3262 l -7.5824,0.15076 z m 77.9689,14.43165 0.3848,-6.1948 10.5742,-10.48482 c 5.8158,-5.76665 11.1821,-11.9397 11.925,-13.71788 1.0599,-2.53659 1.3509,-12.0547 1.3509,-44.18339 0,-22.52269 0.2731,-41.66214 0.607,-42.53212 0.3338,-0.86999 1.0088,-1.58179 1.5,-1.58179 0.5145,0 0.893,26.46463 0.893,62.43389 v 62.43388 l -13.8098,0.0109 -13.8098,0.0109 z m 44.721,3.2783 C 1941.2139,875.51301 1941,865.28241 1941,806.90353 v -68.19579 l 12.75,-12.83751 c 7.0125,-7.06062 13.0875,-12.84486 13.5,-12.85387 0.4125,-0.009 0.75,2.55046 0.75,5.68769 v 5.70405 l 24.4777,24.54946 24.4776,24.54946 -12.9376,12.74649 C 1996.902,793.26408 1990.6633,799 1990.154,799 c -0.5094,0 -1.7016,1.63431 -2.6495,3.63179 -1.9577,4.12548 -1.52,9.58867 0.9905,12.36272 1.2621,1.39461 1.5226,3.72893 1.2928,11.5871 l -0.2878,9.84065 -3.3426,0.68152 c -1.8385,0.37483 -3.8126,1.15138 -4.3868,1.72566 -0.6893,0.68924 -0.8833,8.01409 -0.5708,21.55055 l 0.4734,20.50642 -18.8505,-0.0198 -18.8505,-0.0198 z m 43.3156,-0.54605 -0.4001,-3.42705 12.5492,0.003 12.5492,0.003 0.072,3.43666 0.072,3.43667 -12.2216,-0.0126 -12.2216,-0.0126 z m 28.9602,-1.24515 c 0.2483,-2.57505 0.6495,-11.71627 0.8915,-20.31383 C 2016.1406,838.55446 2015.6746,837 2009.9972,837 h -2.86 l -0.3186,-9.70586 c -0.2978,-9.07278 -0.1466,-9.96963 2.3177,-13.75 1.45,-2.22427 7.3145,-8.66345 13.0323,-14.30928 l 10.3959,-10.26514 3.6857,3.77447 3.6857,3.77447 0.282,42.18417 0.2821,42.18417 -13.0949,-0.0116 -13.0948,-0.0116 z m 42.0173,-40.64826 0.2792,-45.35661 -5.529,-5.97194 c -4.615,-4.98475 -5.2397,-6.07397 -3.7792,-6.58916 0.9624,-0.33947 2.3445,-0.89015 3.0713,-1.22374 1.4873,-0.68263 31.1474,28.1622 36.752,35.74179 3.3708,4.55864 3.4265,4.79842 3.4265,14.75 V 837 h -2.8089 c -6.0641,0 -6.3271,0.84604 -5.913,19.02217 0.2064,9.06281 0.6131,18.36063 0.9036,20.66183 l 0.5283,4.184 -13.605,0.0111 -13.605,0.0111 z M 2087,877.43333 V 874 h 12.401 12.401 l -0.097,3.43333 -0.097,3.43334 H 2099.3037 2087 Z m 28.8179,-0.74372 c 0.2907,-2.30428 0.6976,-11.60463 0.904,-20.66744 C 2117.136,837.84604 2116.873,837 2110.8089,837 H 2108 v -9.68428 c 0,-7.84014 0.406,-10.52288 2.1319,-14.08814 2.9008,-5.99226 1.5325,-10.7298 -4.5347,-15.70148 -7.7965,-6.38861 -37.5974,-36.23729 -37.5899,-37.65009 0,-0.75681 5.4629,-6.77601 12.1308,-13.37601 23.6587,-23.41788 24.3859,-24.26345 22.5822,-26.25659 -0.987,-1.09062 -1.8533,-4.63193 -2.2771,-9.30801 -0.6625,-7.31138 -0.6049,-7.59944 1.8412,-9.20221 l 2.5252,-1.65455 0.3452,9.41234 c 0.2187,5.96296 0.8209,9.88815 1.6432,10.71068 0.9692,0.96946 7.0486,1.37385 24,1.59641 l 22.702,0.29808 20.1817,20.148 20.1816,20.14801 -0.1816,59.05392 -0.1817,59.05392 -39.1054,0.18961 -39.1054,0.18962 z M 1854.7874,825.15448 1854.5,790.00463 1800.25,735.7489 1746,681.49318 v -28.62414 c 0,-24.77666 0.2108,-28.79908 1.5682,-29.9256 1.3607,-1.12934 10.2874,7.41712 67.5,64.62471 l 65.9318,65.92617 -0.031,40.50284 -0.031,40.50284 -12.9314,12.90217 -12.9314,12.90216 z M 875.24613,794.74617 827,746.49235 V 649.24617 552 h 13.5 13.5 v 86.27322 86.27323 L 899.72678,770.27322 945.45355,816 h 176.53765 176.5377 l 12.7355,12.7639 c 7.0046,7.02015 12.7356,13.09515 12.7356,13.5 0,0.40486 -90.1142,0.7361 -200.2539,0.7361 H 923.49227 Z M 1539.2,810.8 c -2.6898,-2.68981 -0.5955,-6.8 3.4648,-6.8 2.9633,0 4.7888,3.284 3.3352,6 -1.1868,2.21761 -4.9408,2.65925 -6.8,0.8 z m 86.8457,-0.24496 c -0.6596,-0.79472 -1.0522,-2.48222 -0.8725,-3.75 0.458,-3.23055 6.189,-3.86533 7.7955,-0.86344 2.3503,4.39154 -3.7393,8.44959 -6.923,4.61344 z m 86.3683,0.0816 c -0.3147,-0.82013 -0.4241,-2.53637 -0.2431,-3.81387 0.2728,-1.9252 0.9281,-2.32273 3.8291,-2.32273 3.3333,0 3.5,0.16667 3.5,3.5 0,3.21932 -0.2612,3.52517 -3.2569,3.81387 -2.184,0.21048 -3.4453,-0.17731 -3.8291,-1.17727 z M 1799,810 c -1.6189,-3.02488 0.3726,-6 4.0161,-6 2.3123,0 3.0814,0.54047 3.5765,2.51299 0.3618,1.44131 0.1044,3.14712 -0.6034,4 -1.7712,2.13423 -5.7279,1.84382 -6.9892,-0.51299 z m 196.0457,0.55504 c -0.6596,-0.79472 -1.0522,-2.48222 -0.8725,-3.75 0.458,-3.23055 6.189,-3.86533 7.7955,-0.86344 2.3503,4.39154 -3.7393,8.44959 -6.923,4.61344 z m 101.1973,0.28794 c -2.8638,-2.86379 -0.3107,-7.28689 3.8498,-6.66974 3.0362,0.45036 4.7249,3.30305 3.3012,5.57676 -1.3452,2.1485 -5.4657,2.77828 -7.151,1.09298 z M 408.45455,798.54545 C 407.10455,797.19545 406,794.925 406,793.5 c 0,-3.33411 4.16589,-7.5 7.5,-7.5 3.33411,0 7.5,4.16589 7.5,7.5 0,3.33411 -4.16589,7.5 -7.5,7.5 -1.425,0 -3.69545,-1.10455 -5.04545,-2.45455 z M 911.55707,758.98171 870.5,717.96342 V 635.23171 552.5 l 13.25,-0.27903 13.25,-0.27902 v 71.76469 71.7647 L 935.76433,734.23567 974.52866,773 h 140.50014 140.5001 l 12.7355,12.7639 c 7.0046,7.02015 12.7356,13.09515 12.7356,13.5 0,0.40486 -73.8868,0.7361 -164.1929,0.7361 H 952.61414 Z m 469.01293,18.1316 c -0.3014,-0.48768 0.082,-1.40954 0.852,-2.04856 1.5587,-1.29363 3.1549,0.19286 2.078,1.93525 -0.7652,1.23812 -2.2005,1.29363 -2.93,0.11331 z M 709.68384,760.07089 697,747.14178 V 649.57089 552 h 13 13 v 110.5 c 0,60.775 -0.14227,110.5 -0.31616,110.5 -0.17389,0 -6.02389,-5.8181 -13,-12.92911 z m 856.75326,1.83983 C 1560.547,755.71539 1564.0778,756 1493.1087,756 c -43.119,0 -65.2029,-0.34344 -65.6214,-1.0205 -0.3936,-0.6369 -3.0471,-0.77294 -7.059,-0.36191 -7.043,0.72158 -8.3186,-0.3329 -3.9027,-3.2263 1.8451,-1.20897 2.3533,-2.19742 1.8863,-3.66876 -0.7512,-2.36707 -5.3509,-6.64549 -7.1933,-6.69093 -0.7047,-0.0174 -1.5573,-0.8191 -1.8946,-1.7816 -0.818,-2.33423 -6.4283,-8.25 -7.824,-8.25 -0.6092,0 -2.5609,1.49932 -4.337,3.33181 -3.8027,3.92342 -3.4527,6.66819 0.8504,6.66819 2.344,0 2.7108,0.33873 2.2547,2.0826 -0.4108,1.57116 0.6191,3.15101 4.194,6.43311 2.6063,2.39277 4.4419,4.8306 4.0792,5.41739 -0.4295,0.69499 -7.2498,1.0669 -19.5655,1.0669 h -18.9062 l -3.4168,-3 c -1.8793,-1.65 -3.9199,-3 -4.5348,-3 -0.6149,0 -1.118,-0.58672 -1.118,-1.30383 0,-1.78006 -6.2346,-7.69617 -8.1105,-7.69617 -1.9666,0 -6.8895,5.14321 -6.8895,7.19773 0,1.83603 2.3452,2.99079 4.4408,2.18663 1.0822,-0.4153 1.3656,0.15242 1.1388,2.28138 l -0.302,2.83426 -35.8888,0.25912 -35.8888,0.25911 -63.7521,-63.76412 -63.7521,-63.76413 0.2521,-234.99499 L 1152.5,158.5 h 17 17 l 0.2522,218.00502 0.2523,218.00502 67.4958,67.49026 67.4958,67.49026 137.4172,0.005 c 75.5794,0.003 137.7707,0.35761 138.2028,0.78892 0.4321,0.43132 -4.6821,6.28132 -11.3649,13 -8.5829,8.62897 -12.7421,13.6105 -14.1653,16.9658 -1.1082,2.6125 -2.1716,4.75 -2.3633,4.75 -0.1916,0 -1.6701,-1.39017 -3.2855,-3.08928 z m 439.7273,-23.24617 -21.1644,-21.1816 0.021,-11.49148 0.02,-11.49147 24.2295,-24.13444 24.2295,-24.13444 5.5,0.50173 c 3.025,0.27596 5.8096,0.78646 6.188,1.13444 1.145,1.05289 2.4772,22.07765 1.4212,22.42964 -0.5206,0.17353 -2.5408,-0.49729 -4.4893,-1.49071 -13.1201,-6.68902 -28.8958,6.17127 -25.0572,20.42659 0.712,2.64418 2.7055,5.79859 5.3117,8.40471 5.1877,5.18775 11.2646,6.53587 17.951,3.98232 5.4897,-2.09655 5.4868,-2.0971 5.8582,1.13016 l 0.3164,2.75 16.2511,0.5 16.251,0.5 -23.1748,23 c -12.7462,12.65 -24.3726,24.65288 -25.8367,26.67307 l -2.6618,3.67308 z M 947.74448,722.24456 914,688.48913 V 620.24456 552 h 103.9326 c 98.1372,0 103.9589,0.0976 104.404,1.75 0.2592,0.9625 0.3874,19.75 0.2848,41.75 -0.1025,22 0.1663,41.34915 0.5974,42.99812 0.5575,2.13232 17.3153,19.53139 58.0293,60.25 L 1238.4935,756 H 1109.9912 981.48897 Z m 877.49532,-48.50474 -64.2544,-64.26019 38.2875,-38.23981 L 1837.5604,533 H 1881.2802 1925 v 85.25073 85.25072 l -17.2789,17.24928 C 1898.2177,730.23783 1890.2289,738 1889.9682,738 c -0.2607,0 -29.3885,-28.91708 -64.7284,-64.26018 z M 666.24818,716.71029 652.99635,703.5 652.99818,627.75 653,552 h 13.5 13.5 v 89 c 0,48.95 -0.1125,88.98213 -0.25,88.96029 -0.1375,-0.0218 -6.21332,-5.98434 -13.50182,-13.25 z M 1717.6862,702.1863 C 1704.6588,689.15041 1694,678.02405 1694,677.46104 c 0,-0.56301 2.5962,-3.59278 5.7694,-6.73283 l 5.7694,-5.70917 18.7306,18.7501 18.7306,18.7501 v 11.18136 c 0,6.14975 -0.3662,11.4077 -0.8138,11.68434 -0.4476,0.27663 -11.4726,-10.16276 -24.5,-23.19864 z m -111.2054,13.84386 -2.9808,-2.96984 -137.5,-0.12847 -137.5,-0.12846 -42.717,-43.15169 c -23.4944,-23.73344 -45.0944,-45.54205 -48,-48.46359 -2.9057,-2.92154 -11.9215,-11.70316 -20.0353,-19.51472 l -14.7523,-14.20282 0.2523,-214.48529 L 1203.5,158.5 h 13 13 l 0.5,211.01118 0.5,211.01118 52.5,52.15368 c 28.875,28.68452 52.8115,52.46603 53.1923,52.84781 0.3808,0.38177 68.5721,0.62229 151.5362,0.53449 82.9642,-0.0878 151.6579,0.1527 152.6527,0.53446 1.4824,0.56885 -1.0485,3.55569 -14.0244,16.55066 -8.7084,8.7211 -16.0723,15.85654 -16.3643,15.85654 -0.292,0 -1.8723,-1.33643 -3.5117,-2.96984 z m 473.9456,-27.73364 c -0.04,-9.23809 -0.2786,-20.31886 -0.5292,-24.62394 -0.2506,-4.30508 -0.105,-8.04414 0.3236,-8.30902 1.3359,-0.82566 0.9421,-32.80065 -0.4208,-34.16356 -0.7645,-0.76449 -4.6392,-1.2 -10.6762,-1.2 h -9.4762 l 12.1762,-12.19115 c 6.6969,-6.70513 12.1762,-12.79597 12.1762,-13.53518 0,-1.05682 0.4502,-1.10312 2.1066,-0.21664 1.2425,0.66501 4.011,0.87769 6.75,0.51855 5.7165,-0.74956 11.3126,-0.73968 12.0736,0.0213 0.755,0.75489 1.0051,69.64928 0.3074,84.66694 l -0.5464,11.76383 -2.3104,-1.51383 C 2101.11,688.68122 2099.3603,688 2098.4926,688 c -0.8678,0 -5.2712,3.84593 -9.7852,8.54652 l -8.2074,8.54652 z m -1859.26237,12.3743 c 0.91521,-0.69606 1.83497,-2.59425 2.0439,-4.2182 l 0.37988,-2.95262 1.39783,2.81852 c 0.76881,1.55019 2.54905,3.44467 3.9561,4.20997 2.42447,1.31867 2.24448,1.39187 -3.44174,1.39967 -5.04828,0.007 -5.73605,-0.19251 -4.33597,-1.25734 z M 216,700 c 0,-0.55 0.42344,-1 0.94098,-1 0.51754,0 1.2191,0.45 1.55902,1 0.33992,0.55 -0.0835,1 -0.94098,1 C 216.70156,701 216,700.55 216,700 Z m 16.5,0 c 0.33992,-0.55 0.81648,-1 1.05902,-1 0.24254,0 0.44098,0.45 0.44098,1 0,0.55 -0.47656,1 -1.05902,1 -0.58246,0 -0.7809,-0.45 -0.44098,-1 z m 1929.3945,-1.18815 c -2.4839,-0.84099 -4.8945,-4.399 -4.8945,-7.22404 0,-0.72495 0.9327,-2.50378 2.0726,-3.95295 5.3556,-6.80861 16.0573,0.6483 11.9485,8.3257 -1.3439,2.51106 -5.9143,3.93893 -9.1266,2.85129 z M 2100,696 c 0,-0.55 0.4766,-1 1.059,-1 0.5825,0 0.7809,0.45 0.441,1 -0.3399,0.55 -0.8165,1 -1.059,1 -0.2426,0 -0.441,-0.45 -0.441,-1 z M 208.18895,694.13794 c -0.8678,-0.55034 -1.20589,-2.48915 -1,-5.73469 L 207.5,683.5 l 4.75,-0.30479 c 4.02429,-0.25823 4.7502,-0.0291 4.75129,1.5 10e-4,1.45544 -0.81738,1.80479 -4.22813,1.80479 -3.35945,0 -4.30648,0.39139 -4.60403,1.90275 -0.20604,1.04651 0.34662,2.30637 1.22813,2.79969 0.88151,0.49332 1.60274,1.54958 1.60274,2.34725 0,1.63091 -0.87741,1.81452 -2.81105,0.58825 z M 240,688.5 c 0,-5.55363 0.60984,-6.49016 2.8,-4.3 2.28709,2.28709 1.20846,9.8 -1.40699,9.8 C 240.37118,694 240,692.53448 240,688.5 Z m -43.89889,-0.0307 c -8.12545,-9.27084 -11.37437,-24.86745 -7.6246,-36.60218 2.35598,-7.3729 7.83613,-15.19218 13.62637,-19.44261 6.44583,-4.73167 18.96944,-9.16234 18.86591,-6.67448 -0.0172,0.4125 -1.13986,2.55 -2.49488,4.75 -1.35501,2.2 -2.46597,4.30536 -2.46879,4.67857 -0.0125,1.65642 3.38615,3.82143 5.99892,3.82143 1.93674,0 3.05681,0.61635 3.46664,1.90762 0.333,1.04919 1.2503,2.15507 2.03845,2.45751 C 229.16906,644.0021 232,641.52059 232,639.42857 232,638.64286 232.45,638 233,638 c 0.55,0 1,-0.9 1,-2 0,-1.1 -0.45,-2 -1,-2 -0.55,0 -1,-2.05532 -1,-4.56739 0,-5.3267 0.22894,-5.33393 10.6717,-0.33737 7.76814,3.71684 15.33633,11.77121 18.47149,19.6581 3.45556,8.69291 3.28005,21.65886 -0.40046,29.58255 -1.4909,3.20975 -4.17793,7.68838 -5.97116,9.95253 l -3.26044,4.11664 -0.70379,-4.95253 c -0.90898,-6.39639 -5.02546,-10.45997 -10.57312,-10.43722 -2.05382,0.008 -4.38497,0.42703 -5.18034,0.93023 -0.87696,0.55482 -2.12874,0.54958 -3.18055,-0.0133 -2.15308,-1.15229 -4.83641,1.2247 -4.9549,4.38922 -0.0685,1.82992 -0.30084,1.67855 -1.45164,-0.94588 -1.53727,-3.50576 -3.86199,-4.81339 -6.21563,-3.49623 -0.99365,0.55607 -2.81131,0.36675 -4.91405,-0.51183 -6.40327,-2.67546 -13.36323,2.37142 -14.298,10.36791 L 199.5,692.34727 Z M 2029.039,689.81144 C 2024.6244,685.07302 2027.8512,678 2034.4274,678 c 3.6672,0 7.5726,3.61006 7.5726,7 0,0.95166 -0.9327,2.91597 -2.0726,4.36514 -2.6775,3.40388 -7.9324,3.61927 -10.8884,0.4463 z M 623.23611,673.73659 610,660.47319 V 606.23659 552 h 13.5 13.5 v 67.5 c 0,37.125 -0.11875,67.5 -0.26389,67.5 -0.14515,0 -6.22015,-5.96853 -13.5,-13.26341 z M 1941,610.23611 V 533 h 13.5 13.5 v 63.76389 63.7639 L 1954.5,674 1941,687.47221 Z M 1729.5,665 l -11.9687,-12 11.9157,-11.9469 c 6.5537,-6.5708 12.2842,-11.71924 12.7344,-11.44098 1.0358,0.64017 1.0881,47.38788 0.053,47.38788 -0.4211,0 -6.1516,-5.4 -12.7344,-12 z m -79.7353,7.45456 L 1646.0294,669 1494.2647,668.99 1342.5,668.98 1294.75,621.08309 1247,573.18611 V 365.59306 158 l 13.25,-0.0153 c 7.2875,-0.008 13.8502,-0.3958 14.5838,-0.86084 C 1277.29,155.56687 1273.309,155 1259.9182,155 H 1247 v -26.56239 -26.56239 l 13.3292,-13.187612 c 7.331,-7.253184 16.3603,-15.775108 20.0651,-18.937608 l 6.7359,-5.75 h 43.2235 c 41.2491,0 43.4026,0.09135 47.1463,2 2.1576,1.1 4.3959,2 4.9739,2 0.5781,0 7.7899,6.75 16.0261,15 8.2362,8.25 14.4181,15 13.7375,15 -0.9342,0 -1.2375,4.11568 -1.2375,16.7926 v 16.79259 l -4.5144,1.20741 C 1403.6406,133.55354 1394.2325,134 1381.0424,134 1355.15,134 1357,135.39395 1357,115.88448 c 0,-11.54322 -0.2461,-13.76496 -1.5818,-14.27749 -3.0867,-1.18447 -30.9536,-0.67155 -32.2182,0.59301 -1.5506,1.55063 -1.6999,43.9974 -0.1648,46.86574 0.7168,1.33944 0.71,2.54189 -0.022,3.91018 -0.9789,1.82902 -2.3012,1.9963 -17.7852,2.25 -22.4225,0.36739 -22.3835,2.18163 0.055,2.54841 l 16.7825,0.27432 1.1404,2.5028 c 0.8607,1.88907 0.8527,2.79041 -0.033,3.67568 -1.3246,1.32456 -1.6945,44.40471 -0.3988,46.44152 0.4088,0.64275 2.3144,1.31775 4.2346,1.5 3.2326,0.3068 3.5141,0.60535 3.7986,4.02915 0.1689,2.0338 -0.34,4.7338 -1.1311,6 -3.8097,6.09801 -2.3178,13.22123 3.5136,16.77657 4.9672,3.02838 10.0233,2.6554 14.2444,-1.05076 4.7667,-4.18522 5.6206,-8.87132 2.6402,-14.48943 -1.377,-2.59563 -2.0972,-5.46566 -1.8971,-7.55923 0.2981,-3.11714 0.6283,-3.41315 4.3227,-3.87495 l 4,-0.5 0.2687,-23.37496 c 0.1482,-12.88354 -0.1368,-23.87991 -0.6348,-24.5 -0.5151,-0.64131 -0.537,-2.09247 -0.051,-3.37504 l 0.8527,-2.25 h 26.4097 c 21.1271,0 26.637,0.27373 27.5455,1.36845 0.9246,1.11407 0.2503,1.4984 -3.6275,2.0675 -8.144,1.19518 -9.7118,1.39902 -11.4051,1.48281 -0.9031,0.0447 -4.0133,2.21874 -6.9118,4.83124 -2.8984,2.6125 -7.0972,5.43324 -9.3306,6.26832 -8.8589,3.31229 -11.4077,14.20443 -4.7218,20.17825 3.5322,3.156 7.0313,4.28998 10.5289,3.41213 3.9495,-0.99126 8.4666,-5.48462 9.547,-9.49683 0.5542,-2.05817 2.0672,-4.73754 3.3622,-5.95415 2.0496,-1.92552 3.0548,-2.12992 7.7612,-1.57816 l 5.4067,0.63385 -0.2892,14.6433 -0.2891,14.64329 -19.7015,19.75 -19.7014,19.75 h -24.799 -24.7989 l -23.4496,22.75 c -13.8537,13.44037 -23.8633,23.9364 -24.4605,25.64922 -0.6611,1.89628 -1.0108,48.0562 -1.0108,133.43428 0,149.86975 -1.082,134.51001 10.1708,144.3793 3.3156,2.90796 19.6476,18.72295 36.2933,35.14443 16.6457,16.42148 30.8884,30.25209 31.6504,30.73469 0.78,0.49401 73.792,0.88415 167.0765,0.89277 91.13,0.008 165.918,0.38261 166.1954,0.83152 0.2775,0.44892 -6.5585,7.85347 -15.191,16.45456 L 1653.5,675.90912 Z M 1286.6599,263.44402 c 0.3526,-0.91891 -0.3339,-2.42327 -1.6766,-3.67422 l -2.2737,-2.11824 2.1819,-0.80711 c 1.9863,-0.73479 2.1658,-1.44129 2.0032,-7.88385 -0.1062,-4.2071 0.2845,-7.53979 0.9634,-8.21866 1.4064,-1.40647 1.5137,-8.39409 0.1419,-9.24194 -0.55,-0.33992 -1,-4.38992 -1,-9 0,-4.76806 -0.4521,-8.66137 -1.0486,-9.03001 -0.7179,-0.44371 -0.6826,-1.08891 0.1119,-2.04628 1.5983,-1.92587 0.4329,-4.42371 -2.064,-4.42371 -1.135,0 -3.5733,0.63081 -5.4185,1.40181 -3.321,1.3876 -3.3554,1.46889 -3.3932,8.02167 -0.021,3.64092 -0.3268,7.93372 -0.6795,9.53954 -0.9119,4.15176 0.9914,7.22349 4.3134,6.96134 3.9867,-0.31461 6.1785,0.99181 6.1785,3.68263 0,2.38236 -1.1455,2.92277 -5.3833,2.53963 -3.8647,-0.34942 -4.4967,1.49431 -4.4967,13.1186 0,6.11596 0.2246,11.48327 0.499,11.92735 0.2745,0.44409 2.7366,0.80743 5.4714,0.80743 3.5769,0 5.1399,-0.43668 5.5695,-1.55598 z m 846.2346,406.44186 c -2.5551,-0.93771 -4.8945,-4.51215 -4.8945,-7.47839 0,-2.59636 4.6881,-6.40749 7.882,-6.40749 4.8125,0 8.3341,5.66726 6.4968,10.4552 -0.5123,1.33517 -5.5312,4.74193 -6.5791,4.46585 -0.1649,-0.0434 -1.4722,-0.50924 -2.9052,-1.03517 z m -81.2278,-0.55255 C 2051.3,668.96667 2051,666.04167 2051,662.83333 V 657 h 12.2752 12.2752 l -0.025,5.75 c -0.014,3.1625 -0.4752,6.08061 -1.0252,6.48469 -1.2499,0.91829 -21.9244,1.00761 -22.8333,0.0986 z M 579.73557,630.2361 567,617.47219 V 584.7361 552 h 13 13 v 45.5 c 0,25.025 -0.11899,45.5 -0.26443,45.5 -0.14543,0 -5.99543,-5.74376 -13,-12.7639 z M 1985,588.24528 V 533 h 12.9809 c 12.6296,0 12.9961,0.0609 13.5396,2.25 0.3073,1.2375 0.4284,20.1358 0.2691,41.99622 l -0.2896,39.74622 -13.25,13.24906 -13.25,13.24907 z m 176.3641,52.60707 c -2.1939,-1.08482 -4.3641,-4.7871 -4.3641,-7.44486 0,-2.40766 4.6818,-6.40749 7.5,-6.40749 3.2685,0 7.5,4.14335 7.5,7.34376 0,5.07114 -6.0526,8.77498 -10.6359,6.50859 z M 1693.2342,628.97069 1689.9684,626 H 1523.7506 1357.5328 L 1323.7664,592.23358 1290,558.46715 V 431.57939 304.69162 L 1309.4138,285.34581 1328.8276,266 h 25.2632 25.2632 L 1401,244.5 1422.646,223 h 5.5952 c 7.5628,0 8.7588,-0.59494 8.7588,-4.35699 0,-3.04603 0.1353,-3.14301 4.3837,-3.14301 h 4.3836 l 0.6164,5.89669 c 0.9929,9.49941 0.7406,12.30321 -1.4923,16.58708 -2.6797,5.14114 -1.9484,9.8054 2.1855,13.93931 3.8682,3.86815 8.6133,4.79228 13.2673,2.58382 6.8705,-3.26025 9.1064,-9.88327 5.6638,-16.77652 -2.2837,-4.57261 -2.3877,-10.20286 -0.346,-18.73038 0.7657,-3.19783 1.1618,-3.50985 4.588,-3.61406 3.4235,-0.10413 3.75,0.11791 3.75,2.55 0,4.16077 1.7156,5.06406 9.6182,5.06406 9.096,0 10.3818,-0.50133 10.3818,-4.04797 0,-3.77822 1.2394,-4.33819 4.2902,-1.9384 1.3889,1.0925 2.9448,1.98637 3.4575,1.98637 2.5586,0 3.3386,8.05838 3.0489,31.5 l -0.2966,24 -4,0.5 -4,0.5 -0.5,7.5 -0.5,7.5 -18.2253,0.27246 -18.2253,0.27247 -0.5155,-2.27247 c -0.2835,-1.24985 -0.6321,-4.74746 -0.7747,-7.77246 l -0.2592,-5.5 h -16.5 -16.5 l -0.2592,5.5 c -0.1426,3.025 -0.4912,6.52261 -0.7747,7.77246 l -0.5155,2.27247 -18.2253,-0.27247 L 1386.5,290.5 1386,283 l -0.5,-7.5 -16.4252,-0.27561 c -12.4707,-0.20926 -16.62,0.0315 -17.2346,1 -0.4453,0.70159 -0.8165,4.60891 -0.8249,8.68294 l -0.015,7.40733 -11.6202,11.76515 c -6.3912,6.47083 -12.1886,11.54704 -12.8833,11.28047 -1.7138,-0.65765 -8.4555,2.2526 -11.2077,4.83812 -1.2312,1.15662 -2.98,4.04464 -3.8863,6.41782 -1.602,4.19462 -1.5818,4.44676 0.7248,9.04735 4.1488,8.27502 5.6382,8.83643 23.4434,8.83643 h 15.4275 l 9e-4,19.62756 c 10e-4,21.21478 0.052,21.41916 5.5009,22.03395 2.5786,0.29095 3.0445,0.80146 3.3168,3.63476 0.1851,1.92557 -0.585,5.15913 -1.8518,7.77612 -3.404,7.03154 -0.3099,14.34518 6.9946,16.53366 4.8777,1.46139 8.5363,0.55185 12.095,-3.0068 4.0111,-4.01105 4.6802,-8.90883 1.9611,-14.35339 -1.2189,-2.44055 -2.0366,-5.67165 -1.8501,-7.30987 0.2826,-2.48096 0.8266,-2.98369 3.5099,-3.24379 1.7466,-0.1693 3.6644,-0.89679 4.2618,-1.61667 0.6955,-0.83806 1.103,-8.28107 1.1327,-20.69219 L 1386.1164,344.5 H 1404.5582 1423 l 0.1307,13 c 0.072,7.15 0.4094,16.375 0.75,20.5 l 0.6193,7.5 3.4913,0.33135 c 5.4678,0.51895 6.6166,4.48308 3.0124,10.39448 -3.132,5.13709 -2.6474,10.10114 1.4195,14.53886 3.1046,3.38775 3.9027,3.73531 8.5768,3.73531 4.6741,0 5.4722,-0.34756 8.5768,-3.73531 4.0669,-4.43772 4.5515,-9.40177 1.4195,-14.53886 -3.6042,-5.9114 -2.4554,-9.87553 3.0124,-10.39448 L 1457.5,385.5 l 0.6507,-8.5 c 0.358,-4.675 0.6955,-13.9 0.75,-20.5 l 0.099,-12 h 18.5 18.5 v 19.62756 c 0,21.21499 0.051,21.41915 5.5,22.03395 2.546,0.28726 3.0463,0.81514 3.3059,3.4879 0.1749,1.80112 -0.5743,4.79154 -1.75,6.98519 -2.4367,4.54619 -2.535,6.28292 -0.6161,10.87562 4.2198,10.0994 18.1195,9.44759 22.1238,-1.03746 1.6103,-4.21675 1.5929,-4.51813 -0.5151,-8.87262 -1.2778,-2.63964 -2.0508,-5.87359 -1.8653,-7.80387 0.2779,-2.8912 0.707,-3.33409 3.4923,-3.60407 1.7466,-0.1693 3.6463,-0.875 4.2216,-1.56823 0.6118,-0.73718 1.0823,-7.25152 1.1333,-15.6922 l 0.087,-14.43177 51.9413,51.98923 51.9412,51.98924 v 23.32651 c 0,15.03595 0.3925,24.10282 1.1044,25.51076 0.6074,1.20134 21.6413,22.76995 46.7419,47.93024 l 45.6375,45.74599 -15.4798,15.50401 c -8.5139,8.52721 -15.7102,15.49083 -15.9919,15.47471 -0.2817,-0.0161 -1.9817,-1.36613 -3.7779,-3 z M 271.93822,626.41754 c -3.81169,-5.0872 -8.95458,-9.56942 -16.39148,-14.28576 L 250.60844,609 h 24.42873 24.42872 L 288.5,620 c -6.03124,6.05 -11.45243,11 -12.04709,11 -0.59466,0 -2.62627,-2.06211 -4.51469,-4.58246 z m -64.63413,-21.51345 c -0.56723,-0.56723 -41.3093,-0.82862 -104.11808,-0.66798 L -1.8042691e-4,604.5 l 0.005057357,-184 0.00505736,-184 2.45906991,3 c 1.3524885,1.65 2.4752533,4.31046 2.4950329,5.91214 0.057418,4.64948 4.5716724,11.30748 9.3291039,13.75934 15.791575,8.1386 32.302722,-8.36575 24.181435,-24.17148 -2.193031,-4.2681 -6.017618,-7.06974 -12.112945,-8.87315 -5.727266,-1.69451 -5.868957,-1.82254 -6.181218,-5.58524 C 19.724045,215.04244 20.697033,212 22.912063,212 25.231441,212 26,210.11296 26,204.41821 V 200 H 44.5 63 l 0.01531,4.75 c 0.0084,2.6125 0.379602,5.32402 0.824845,6.02561 0.614633,0.9685 4.763979,1.20926 17.234687,1 L 97.5,211.5 98,206 l 0.5,-5.5 h 18.5 18.5 l 0.5,5.5 0.5,5.5 15.92372,0.27628 c 8.75805,0.15195 16.271,-0.0731 16.69543,-0.5 1.48855,-1.49738 2.20397,-33.35865 0.95811,-42.66992 -0.75599,-5.65014 -0.84166,-9.24196 -0.23491,-9.84871 0.59742,-0.59742 12.41449,-0.6796 31.55636,-0.21945 L 232,159.27382 v 8.63691 8.63691 l -27.75,27.66515 -27.75,27.66515 -20.5,-0.12253 c -13.39039,-0.08 -21.19362,0.26283 -22.5,0.9886 -1.1,0.61112 -11.3375,10.50569 -22.75,21.98794 -18.90381,19.01933 -20.751362,21.18337 -20.765313,24.32243 -0.02225,5.00774 -0.91628,5.79062 -7.006515,6.13545 L 77.5,285.5 77.227787,304.92725 c -0.208409,14.87367 0.02598,19.61651 1,20.23469 0.699717,0.44409 3.40114,0.81433 6.003161,0.82275 4.16891,0.0135 4.803338,0.30374 5.340294,2.44314 1.243292,4.95367 -0.1633,6.44866 -6.373284,6.77382 L 77.5,335.5 v 15.5 15.5 l 5.743424,0.29971 c 6.450377,0.3366 7.187784,1.32288 6.576163,8.79561 L 89.5,379.5 l -4.974609,0.31396 c -2.736035,0.17268 -5.548535,0.79028 -6.25,1.37245 C 77.346252,381.95753 77,386.27878 77,397.10339 c 0,16.73262 -0.63816,15.52043 8.491683,16.13007 4.28917,0.2864 5.233698,1.74026 4.090297,6.29593 -0.527555,2.10194 -1.2473,2.40523 -6.338556,2.6709 L 77.5,422.5 77.227492,441.37042 c -0.188773,13.07202 0.07931,19.29432 0.872445,20.25 0.867988,1.04586 4.352772,1.37958 14.405876,1.37958 12.419917,0 13.294097,0.12684 13.783937,2 0.51289,1.96131 1.36401,2 43.99419,2 37.42109,0 43.64443,0.20876 44.71606,1.5 1.91735,2.31026 5.73956,1.82711 7.56314,-0.95602 0.88509,-1.35082 1.31891,-2.92582 0.96404,-3.5 -0.4345,-0.70303 3.25308,-1.04398 11.29136,-1.04398 8.92728,0 12.22522,-0.3478 13.08152,-1.37958 0.79314,-0.95568 1.06122,-7.17798 0.87245,-20.25 L 228.5,422.5 214.63864,422 l -13.86137,-0.5 -0.20406,-4.25 -0.20407,-4.25 h 13.19298 c 14.02659,0 14.94099,-0.29323 15.59206,-5 l 0.34582,-2.5 41.2392,-0.5 41.23919,-0.5 16.01081,-15.98828 c 17.48679,-17.46219 17.37997,-17.42796 14.52705,-4.6548 -0.81607,3.65369 -1.98172,9.90558 -2.59035,13.89308 l -1.1066,7.25 -7.65965,0.0153 c -4.21281,0.008 -8.2921,0.41571 -9.06509,0.90509 -1.19656,0.75753 -1.29806,11.14851 -0.68291,69.91359 l 0.72254,69.02383 -2.06709,1.10627 C 317.0846,547.56028 317.51725,554 320.60699,554 321.74009,554 322,557.00931 322,570.12877 v 16.12877 l -8.65409,8.84376 -8.65409,8.84377 -31.09591,0.43373 c -17.10275,0.23856 -32.67091,0.37761 -34.59591,0.309 -9.9882,-0.356 -23.92674,-0.10932 -27.13202,0.48018 -1.99761,0.36739 -4.05136,0.24864 -4.56389,-0.26389 z m 318.90018,-28.19968 c -12.80387,-12.81257 -22.96278,-23.61257 -22.57535,-24 C 504.01635,552.31699 514.60833,552 527.16667,552 H 550 v 24 c 0,13.2 -0.11609,24 -0.25798,24 -0.14189,0 -10.73387,-10.48301 -23.53775,-23.29559 z M 2028,566.68718 V 533 h 8.441 c 4.6425,0 8.6701,-0.37073 8.9501,-0.82385 0.2801,-0.45312 2.4441,-0.56562 4.8091,-0.25 l 4.2998,0.57385 0.2794,12.68136 0.2793,12.68136 -2.7793,1.32852 c -2.7078,1.29429 -2.7923,1.58581 -3.2794,11.31864 l -0.5,9.99012 -10.25,9.93718 -10.25,9.93719 z M 1696.2012,544.70127 1652,500.49167 v -13.31322 -13.31323 l 2.2499,0.71408 c 1.2374,0.39275 21.5999,0.76057 45.25,0.81739 L 1742.5,475.5 l 0.2583,55.62064 c 0.2082,44.8174 0,55.83133 -1.0487,56.70543 -1.0124,0.84018 -11.2745,-8.88442 -45.5084,-43.1248 z m 465.0343,38.28372 c -2.1934,-0.90201 -4.2355,-4.56423 -4.2355,-7.59554 0,-2.39255 4.6916,-6.38945 7.5,-6.38945 3.2685,0 7.5,4.14335 7.5,7.34376 0,5.04664 -5.8564,8.65974 -10.7645,6.64123 z m -414.7002,-2.03515 C 1746.2298,580.15243 1746.097,556.1 1746.24,527.5 l 0.26,-52 89.25,-0.12508 89.25,-0.12509 V 489.62492 504 h -47.9349 c -30.9152,0 -48.9344,0.37155 -50.75,1.04646 -1.5483,0.57555 -20.0072,18.21548 -41.0198,39.19984 -25.8406,25.80587 -38.3844,37.68417 -38.76,36.70354 z m 351.8706,-22.10217 c -0.3488,-0.56432 -5.8473,-0.83657 -13.251,-0.65612 L 2072.5,558.5 v -13 -13 h 13.5 13.5 v -14 -14 h -9 -9 l -0.7515,-4 c -0.8753,-4.65839 -0.9475,-16.21771 -0.1379,-22.05626 l 0.5625,-4.05626 5.8598,0.69093 c 3.2229,0.38001 7.3465,0.38688 9.1635,0.0153 l 3.3036,-0.67566 V 460.459 446.5 h -13.5 -13.5 v -13 -13 l 13.2906,-1.00944 c 7.3098,-0.55519 13.6098,-0.70579 14,-0.33467 0.3902,0.37111 1.7827,0.82536 3.0944,1.00943 l 2.385,0.33468 0.115,67.90083 c 0.074,43.95922 -0.2376,68.33153 -0.885,69.12234 -1.3509,1.65012 -5.355,2.52039 -6.0941,1.3245 z M 499.79658,547.04899 c -3.03577,-0.45002 -5.60478,-2.4226 -14.25,-10.94165 L 475,525.71468 474.98469,507.60734 C 474.97627,497.6483 474.5434,488.825 474.02277,488 c -0.77661,-1.23065 -4.41829,-1.55521 -20.28002,-1.80745 -17.43082,-0.2772 -19.44548,-0.4869 -20.47213,-2.13083 -0.81781,-1.30952 -1.19707,-21.3723 -1.34578,-71.19254 L 431.71777,343.5 l 75.89112,-0.16069 75.89111,-0.1607 4.75,4.6231 4.75,4.62311 v 97.59404 97.59404 h -13 -13 v -57.11936 -57.11936 l 3.12316,-2.93709 c 9.10358,-8.56121 7.59152,-21.53547 -3.37013,-28.91747 -5.72289,-3.85402 -11.45528,-4.67451 -14.11017,-2.01962 -0.825,0.825 -1.90715,1.5 -2.40476,1.5 -2.12744,0 -8.09085,7.40242 -9.22407,11.44989 -1.94195,6.93597 1.01983,15.56052 6.59909,19.21619 L 550,433.23002 v 57.16939 57.1694 l -23.25,0.0146 c -12.7875,0.008 -24.91654,-0.23246 -26.95342,-0.5344 z M 610,446.78904 V 345.95308 l -8.22474,-8.56707 c -4.5236,-4.7119 -9.45125,-9.20134 -10.95034,-9.97655 C 588.54806,326.23205 575.2082,326 509.79966,326.00001 l -78.29966,2e-5 0.0391,-22.75002 0.0391,-22.75001 75.46093,-0.13067 75.46093,-0.13067 27.25,27.10643 27.25,27.10643 V 441.03826 547.625 H 623.5 610 Z m 43.45475,100.33237 C 653.20464,546.8713 653,497.14621 653,436.62121 V 326.57576 l -30.25,-30.35652 c -16.6375,-16.6961 -31.1158,-30.83338 -32.17399,-31.41619 -1.31629,-0.72495 -26.79329,-1.00758 -80.65975,-0.89479 l -78.73575,0.16486 0.51739,-3.85748 c 0.36965,-2.75596 0.0547,-4.32018 -1.10294,-5.47782 -0.89119,-0.89119 -1.78611,-3.04405 -1.98871,-4.78412 -0.26923,-2.31236 -2.21105,-5.0207 -7.21548,-10.06378 -3.76592,-3.79499 -7.75694,-7.23522 -8.86894,-7.64495 C 411.2626,231.78099 413.89467,231.31141 419.5,231 l 9,-0.5 0.5,-6 0.5,-6 74.5,-0.17785 74.5,-0.17784 50.75,50.67417 50.75,50.67417 V 433.5712 547.64976 l -13.04525,-0.0368 c -7.17489,-0.0202 -13.24989,-0.24144 -13.5,-0.49155 z M 696.76208,429.80972 696.5,312.00654 l -55,-55.03299 c -30.25,-30.26814 -56.01384,-55.29373 -57.25298,-55.61242 -1.23914,-0.31869 -36.56414,-0.64282 -78.5,-0.72029 L 429.5,200.5 l -0.30988,-5.46969 c -0.17043,-3.00832 -0.78803,-6.04582 -1.37244,-6.75 C 426.99688,187.29131 419.84325,187 396.37756,187 373.03409,187 366,186.71568 366,185.77212 c 0,-0.67533 -3.47694,-4.72533 -7.72654,-9 L 350.54692,169 h 37.53541 c 28.48694,0 37.93078,-0.30133 39.17552,-1.25 0.91538,-0.69764 1.77313,-3.01754 1.94113,-5.25 l 0.30102,-4 h 61 61 l -0.32401,4.30836 c -0.42193,5.61028 0.87845,7.02522 6.38,6.94205 5.20697,-0.0787 6.91559,-1.6425 6.12325,-5.6042 -1.17736,-5.88679 -0.21656,-6.80777 6.63744,-6.36233 l 6.18332,0.40186 73.25,73.15458 73.25,73.15458 v 121.559 121.559 H 710.01208 697.02416 Z M 740,422.57938 V 297.53376 L 671,228.5072 C 633.05,190.54259 602,159.14749 602,158.74032 602,158.33314 609.31377,158 618.25282,158 h 16.25282 L 700.75282,224.2528 767,290.5056 V 419.0653 547.625 H 753.5 740 Z m 44,-5.82259 c 0,-111.7775 -0.20928,-131.24982 -1.43538,-133.55645 -0.78946,-1.48519 -28.68946,-29.92395 -62,-63.19724 C 687.25408,186.7298 660,159.1673 660,158.7531 660,158.33889 667.31393,158 676.25318,158 h 16.25318 L 751.25318,216.75315 810,275.5063 v 136.0533 136.0533 h -13 -13 z m 43,-8.30602 V 269.27654 l -54.97969,-54.88827 c -30.23883,-30.18855 -54.98883,-55.23099 -55,-55.64988 -0.0112,-0.41888 17.64219,-0.64388 39.22969,-0.5 l 39.25,0.26161 0.5,22.72924 0.5,22.72923 28.75,28.81055 28.75,28.81055 V 404.60229 547.625 H 840.5 827 Z m 43.52321,137.74912 c -0.29823,-0.77716 -0.52913,-66.68298 -0.51311,-146.45738 l 0.0291,-145.04436 -11.92836,-12.09907 c -6.56059,-6.6545 -19.39441,-19.60942 -28.5196,-28.78873 L 813,197.1207 V 177.56035 158 h 13 13 l 0.0153,14.75 c 0.008,8.1125 0.39899,15.35538 0.86792,16.0953 0.46893,0.73991 13.51204,14.04861 28.98468,29.57488 L 897,246.64976 V 397.13133 547.6129 h -12.96728 c -10.24921,0 -13.08094,-0.29618 -13.50951,-1.41301 z m 43.46148,-151.63674 c -0.009,-88.6064 -0.39316,-153.66009 -0.91256,-154.48068 -0.49349,-0.77965 -13.55153,-14.09101 -29.01789,-29.58082 L 855.9336,182.33837 856.2168,170.41919 856.5,158.5 l 131,-0.27406 c 72.05,-0.15073 132.0764,-0.0136 133.3921,0.30472 2.3245,0.56243 2.3748,0.78426 1.7774,7.85141 -0.4208,4.97737 -0.2447,7.64272 0.5578,8.44528 0.8969,0.89687 -7.2093,1.17265 -34.4683,1.17265 -24.7332,0 -35.848,0.33496 -36.3174,1.09449 -0.372,0.60196 -0.6801,35.753 -0.6845,78.11341 -0.01,64.28076 0.2194,77.16303 1.3674,77.8902 0.7565,0.4792 16.9417,0.87817 35.967,0.88659 l 34.5914,0.0153 -0.6043,4.25 c -0.3324,2.3375 -0.56,15.36985 -0.5057,28.96079 l 0.099,24.71078 -31.8731,0.28922 c -27.0269,0.24523 -32.0173,0.51729 -32.8205,1.78921 -0.5211,0.825 -0.9543,4.50175 -0.9627,8.17054 -0.015,6.46986 -0.098,6.68738 -2.7653,7.22986 -1.5125,0.30763 -6.8,0.4733 -11.75,0.36818 -6.7306,-0.14294 -9.7754,0.22404 -12.0752,1.4554 -3.9836,2.13297 -10.2348,9.07693 -12.022,13.35434 -5.7032,13.64974 7.3749,29.43872 21.006,25.36023 2.2502,-0.67325 7.1287,-1.42177 10.8412,-1.66338 l 6.75,-0.43929 v 6.6478 C 1057,465.87421 1054.1423,465 1091.3766,465 h 32.3063 l -0.6136,4.25 c -0.3374,2.3375 -0.5438,20.28374 -0.4586,39.88053 0.085,19.59679 -0.2259,36.24679 -0.6914,37 -0.7072,1.14436 -17.8654,1.37985 -104.3828,1.43262 L 914,547.6263 Z M 2159.9108,524.12884 C 2154.8872,520.06101 2158.1623,511 2164.6562,511 c 3.2004,0 7.3438,4.2315 7.3438,7.5 0,3.2685 -4.1434,7.5 -7.3438,7.5 -1.339,0 -3.4745,-0.84202 -4.7454,-1.87116 z M 2036.75,504.21107 2028,503.92213 v -14.59191 -14.5919 l 3.25,0.49399 c 1.7875,0.2717 5.8375,0.19437 9,-0.17185 l 5.75,-0.66585 v 3.63603 c 0,1.99981 0.275,3.91103 0.6111,4.24714 0.757,0.757 0.7706,12.66976 0.017,14.72222 -0.303,0.825 -0.6808,2.85 -0.8395,4.5 l -0.2885,3 z M 1941,489.625 V 475.25 h 13.5 13.5 V 489.625 504 h -13.5 -13.5 z m 44,-0.005 v -14.37955 l 12.75,0.0151 c 8.2511,0.01 13.0092,0.40831 13.4847,1.12954 0.8839,1.34089 1.0204,23.78603 0.1583,26.03269 -0.5101,1.32921 -2.6657,1.58179 -13.5,1.58179 H 1985 Z m 145.9108,5.50838 c -1.6491,-1.33537 -2.3108,-2.91433 -2.3108,-5.51429 0,-4.28522 1.7313,-6.33081 6.0971,-7.20397 2.5669,-0.51339 3.6588,-0.14564 5.7366,1.93222 3.239,3.23903 3.2806,7.03381 0.1118,10.20265 -2.9299,2.92981 -6.4721,3.1443 -9.6347,0.58339 z M 2051,489.5 V 483 h 12.25 12.25 v 6.5 6.5 H 2063.25 2051 Z M 325.11487,448 l 0.0135,-38 h 7.24467 c 4.28073,0 7.89543,-0.5114 8.83531,-1.25 1.10066,-0.86496 2.71366,-7.56472 5.2364,-21.75 l 3.64576,-20.5 4.88039,-4.75 4.88038,-4.75 17.82434,-7e-5 17.82435,-7e-5 v 64.49999 64.49999 l -35.19933,8e-5 -35.19933,8e-5 z m 1834.22793,17.43371 c -2.0779,-2.07786 -2.4456,-3.16968 -1.9322,-5.73661 0.7997,-3.99882 2.2877,-5.48676 6.2865,-6.28652 2.5669,-0.51339 3.6588,-0.14564 5.7366,1.93222 3.239,3.23903 3.2806,7.03381 0.1118,10.20265 -3.1689,3.16885 -6.9637,3.12729 -10.2027,-0.11174 z M 126.23848,459.75 c 0.58561,-1.7875 1.2074,-3.8125 1.38175,-4.5 0.24303,-0.95832 6.16529,-1.25 25.37977,-1.25 19.21448,0 25.13674,0.29168 25.37977,1.25 0.17435,0.6875 0.79614,2.7125 1.38175,4.5 l 1.06475,3.25 H 153 125.17373 Z M 2045.3911,446.82385 C 2045.1111,446.37073 2041.0835,446 2036.441,446 H 2028 v -12.6 -12.6 l 3.4,-3.4 c 4.119,-4.11896 5.3683,-4.25937 5.7836,-0.65 0.3122,2.71383 0.4282,2.75658 8.8164,3.25 l 8.5,0.5 v 13 13 l -4.2998,0.57385 c -2.365,0.31562 -4.529,0.20312 -4.8091,-0.25 z M 1658.25,439.89238 1652,433.80755 V 417.21592 400.6243 l 9,-9.17745 c 4.95,-5.0476 9.0315,-9.12556 9.0699,-9.06215 0.039,0.0634 0.4159,5.5744 0.8387,12.24664 0.5854,9.23872 1.2373,12.93376 2.7341,15.4966 6.1574,10.54292 20.5572,10.54292 26.7146,0 2.1559,-3.6915 2.9694,-12.4614 4.2543,-45.86553 0.6675,-17.3508 0.8095,-18.30832 2.9218,-19.69231 1.7481,-1.1454 5.7016,-1.41383 18.5934,-1.26241 L 1742.5,343.5 v 51 51 l -39,0.2386 -39,0.23861 z m 88.4167,5.44095 C 1746.3,444.96667 1746,422.00702 1746,394.31189 v -50.35477 l 2.75,-1.06663 c 5.9357,-2.30226 7.7907,-3.56909 9.9775,-6.81409 1.2499,-1.85469 2.2725,-4.77701 2.2725,-6.49403 0,-2.60739 1.5275,-4.64301 9.2688,-12.35212 7.0142,-6.985 9.9132,-9.23025 11.9179,-9.23025 2.5731,0 2.6645,0.20829 3.1809,7.25 0.2925,3.9875 0.4808,10.85 0.4185,15.25 -0.3296,23.28585 0.121,55.39784 0.9228,65.7562 0.9983,12.89874 1.9777,15.18665 8.383,19.58287 2.7998,1.92157 4.3526,2.26326 8.6996,1.91429 9.995,-0.80237 14.5897,-6.68966 14.3669,-18.40887 -0.078,-4.10124 0.324,-9.53496 0.8932,-12.07494 1.1997,-5.35312 1.4939,-47.57791 0.3445,-49.43769 -1.4171,-2.29295 0.1186,-19.83186 1.7365,-19.83186 0.5196,0 2.8251,1.75392 5.1233,3.89761 2.8758,2.68256 4.2179,4.78682 4.305,6.75 0.07,1.56881 0.197,5.05292 0.2829,7.74247 0.1524,4.77082 0.394,5.13278 9.9062,14.84263 5.3625,5.4739 11.325,10.69982 13.25,11.61315 2.9542,1.40162 3.578,2.28392 4,5.65737 l 0.5,3.99677 16.2017,0.27454 c 15.5498,0.26349 16.2466,0.1905 17.3194,-1.81405 0.7486,-1.39876 0.9634,-7.26936 0.6504,-17.77454 -0.5854,-19.64467 -0.5892,-26.73607 -0.025,-46.41079 C 1893.1625,288.77717 1892.703,287 1887.5334,287 h -3.3962 l -0.3186,-9.70701 c -0.2817,-8.58222 -0.044,-10.26121 2.0537,-14.4898 l 2.3724,-4.7828 -2.7424,-5.60524 -2.7424,-5.60523 -0.2088,-43.92885 c -0.208,-43.73859 -0.1999,-43.93106 1.87,-44.43894 1.1434,-0.28055 10.6289,-0.38229 21.0789,-0.22611 l 19,0.28398 0.2534,143.75 0.2534,143.75 h -88.8367 c -48.8602,0 -89.1368,-0.3 -89.5034,-0.66667 z M 1941.2466,302.25 1941.5,158.5 l 13.25,-0.27903 13.25,-0.27902 V 301.97097 446 h -13.5034 -13.5034 z M 1985,301.99219 v -144.0078 l 60.25,0.2578 60.25,0.25781 0.5,27.16846 c 0.275,14.94265 0.725,27.3692 1,27.61454 2.2383,1.99699 6.139,2.43391 19,2.12823 7.975,-0.18955 15.2875,-0.10429 16.25,0.18946 1.1601,0.35405 1.75,1.54735 1.75,3.54002 0,2.32256 0.3978,2.93049 1.75,2.67406 1.0398,-0.19719 1.8754,-1.41278 2.0589,-2.99537 0.4027,-3.47197 2.281,-3.73143 26.9411,-3.72167 l 19.25,0.008 v 13.94788 13.94789 l -22.7409,-0.25056 -22.7409,-0.25056 -0.5168,-2.98779 c -0.3069,-1.77406 -1.2246,-3.12409 -2.2591,-3.32332 -1.395,-0.26866 -1.7423,0.37964 -1.7423,3.25251 v 3.58806 l -15.75,-0.11803 c -19.6735,-0.14743 -18.8011,-0.21746 -20.6786,1.66 -1.3983,1.39834 -1.5714,9.20613 -1.5714,70.8865 V 384.773 l -3.25,0.59905 c -5.277,0.97267 -17.8647,1.25144 -18.3864,0.40719 C 2084.0987,385.35066 2081.2085,385 2077.941,385 H 2072 v -8.18428 c 0,-6.24825 0.4926,-9.20179 2.0823,-12.48568 1.8177,-3.75486 1.9291,-4.76534 0.8773,-7.95256 C 2073.1966,351.03554 2067.6315,346 2063.4909,346 c -5.572,0 -12.4909,7.32005 -12.4909,13.21515 0,1.27296 0.9183,4.0279 2.0408,6.12208 1.6476,3.07409 1.9847,5.2867 1.75,11.4852 L 2054.5,384.5 l -6.5,0.25578 c -10.1589,0.39976 -10.8336,0.69921 -11.1899,4.96646 -0.2669,3.19663 -0.7462,3.8386 -3.4395,4.60609 -1.917,0.5463 -6.7596,4.53739 -12.5,10.30195 l -9.3706,9.41016 0.3288,13.94376 c 0.1809,7.66907 0.038,14.85997 -0.3174,15.97978 -0.6061,1.90976 -1.4482,2.03602 -13.5788,2.03602 H 1985 Z m 82.6931,30.7235 c 1.8037,-1.15409 1.4202,-12.73498 -0.4454,-13.45087 -1.2786,-0.49067 -1.2741,-0.67053 0.035,-1.40327 1.8169,-1.0168 2.2557,-11.98669 0.6029,-15.07489 -0.7654,-1.43026 -0.7593,-2.31318 0.022,-3.09402 1.2493,-1.24938 1.4587,-4.98873 0.3426,-6.11837 -0.4125,-0.41749 -0.75,-2.57415 -0.75,-4.79257 0,-4.87351 -2.3202,-6.99962 -5.483,-5.02441 -1.0944,0.68349 -2.6406,1.24271 -3.436,1.24271 -1.9767,0 -3.0221,3.76354 -1.5412,5.54799 0.8048,0.96966 0.8792,1.86725 0.224,2.70201 -0.5397,0.6875 -1.0151,8.33241 -1.0565,16.98869 -0.041,8.65628 -0.2898,16.08574 -0.5519,16.50991 -0.2622,0.42417 0.1129,2.17334 0.8335,3.88705 1.1973,2.84763 1.6846,3.10412 5.6606,2.97966 2.3928,-0.0749 4.8874,-0.47972 5.5436,-0.89962 z M 2060,323.44098 c 0,-0.85746 0.4573,-1.27636 1.0163,-0.9309 0.559,0.34546 0.7574,1.04702 0.441,1.55902 -0.8572,1.38704 -1.4573,1.12841 -1.4573,-0.62812 z m 10.0097,-64.96661 c 0.5282,-1.38909 1.642,-2.78723 2.4753,-3.10698 0.8332,-0.31975 1.515,-1.20822 1.515,-1.97438 0,-0.76615 0.4474,-1.39301 0.9942,-1.39301 1.1995,0 10.0058,-8.54149 10.0058,-9.70489 0,-0.45147 1.0125,-1.26506 2.25,-1.80798 1.2375,-0.54292 2.3938,-1.99963 2.5696,-3.23713 0.2013,-1.41797 1.0115,-2.25 2.1909,-2.25 4.181,0 3.6359,-4.40664 -0.966,-7.80895 -3.0409,-2.24827 -6.0445,-2.02929 -6.0445,0.44069 0,0.77977 -1.0865,1.83085 -2.4144,2.33573 -1.328,0.50488 -2.7083,1.84374 -3.0674,2.97525 -0.3591,1.1315 -1.0925,2.05728 -1.6297,2.05728 -1.3944,0 -18.8885,17.74253 -18.8885,19.15676 0,2.04766 5.4059,6.78654 7.7748,6.81546 1.5267,0.0186 2.5905,-0.80272 3.2349,-2.49785 z M 1031.6946,437.88888 c -4.749,-2.76269 -4.0041,-10.68961 1.2073,-12.84825 7.5941,-3.14559 13.8688,6.84817 7.4632,11.88679 -2.8774,2.2634 -5.8634,2.59451 -8.6705,0.96146 z m -905.07065,-11.83909 -0.63166,-3.95021 -5.74615,-0.29979 L 114.5,421.5 v -4 -4 l 5,-0.29344 c 3.19805,-0.18769 5.45049,-0.88725 6.25,-1.94113 1.55766,-2.05324 1.73662,-26.48766 0.21482,-29.33117 C 125.13355,380.38103 123.84372,380 119.4171,380 h -5.51253 l 0.29771,-6.25 0.29772,-6.25 5.47817,-0.31017 c 3.013,-0.1706 5.81861,-0.8456 6.23469,-1.5 0.98627,-1.55118 0.98627,-27.82848 0,-29.37966 -0.41608,-0.6544 -3.22169,-1.3294 -6.23469,-1.5 L 114.5,334.5 114.1925,330.25 113.885,326 h 5.52232 c 4.57014,0 5.7143,-0.35874 6.6358,-2.08057 0.7391,-1.38102 1.0031,-8.27413 0.78519,-20.50102 L 126.5,284.99797 l 26.5,-2.1e-4 26.5,-2.1e-4 -0.31132,18.45238 c -0.20342,12.05677 0.0687,19.16251 0.78518,20.50123 0.96098,1.79561 2.05814,2.04884 8.87675,2.04884 h 7.78025 l -0.20331,4.25 -0.20332,4.25 -7.83154,0.29601 c -4.71366,0.17817 -8.1362,0.77535 -8.5968,1.5 -0.90508,1.42395 -1.06985,26.82649 -0.1889,29.1222 0.48473,1.26319 2.24713,1.58179 8.75,1.58179 H 196.5 v 6.5 6.5 h -7.55 c -4.53889,0 -8.02859,0.47859 -8.75,1.2 -1.67219,1.67219 -1.67219,28.92781 0,30.6 0.72323,0.72323 4.22565,1.2 8.81543,1.2 h 7.61543 l -0.20331,4.25 -0.20332,4.25 -7.83154,0.29601 c -8.34016,0.31524 -9.35204,0.90376 -9.37738,5.45399 L 179,430 H 153.12781 127.25562 Z M 555.31537,423.9837 C 550.85707,422.20643 549.55139,415.44861 553,412 c 4.33276,-4.33276 12.33333,-1.15434 12.33333,4.89972 0,5.19199 -5.3226,8.95575 -10.01796,7.08398 z M 2086,402.75 V 390.5 h 6.5 6.5 V 402.75 415 h -6.5 -6.5 z m -721.2013,1.70761 c -0.9871,-2.16652 -0.8535,-2.84729 0.9039,-4.60469 2.5877,-2.58764 6.0406,-1.72439 6.9067,1.72672 1.3089,5.21499 -5.5879,7.75625 -7.8106,2.87797 z M 1438.2,405.8 c -3.3943,-3.39429 0.5974,-9.04917 4.8,-6.8 3.5297,1.88901 2.0019,8 -2,8 -0.88,0 -2.14,-0.54 -2.8,-1.2 z m 71.8108,-0.28701 c -1.7078,-2.05779 -0.458,-6.23629 2.1091,-7.05103 1.4538,-0.46144 2.76,-0.0265 4.1775,1.39096 1.7574,1.7574 1.891,2.43817 0.9039,4.60469 -1.3193,2.89541 -5.1917,3.46378 -7.1905,1.05538 z M 1684.2,405.8 c -3.3943,-3.39429 0.5974,-9.04917 4.8,-6.8 3.5297,1.88901 2.0019,8 -2,8 -0.88,0 -2.14,-0.54 -2.8,-1.2 z m 115.3714,-0.37143 c -2.0165,-2.01649 -1.9777,-2.7052 0.3111,-5.53183 1.6615,-2.05186 2.1899,-2.18479 4.5,-1.13222 1.7292,0.78785 2.6175,1.98048 2.6175,3.51404 0,4.41556 -4.3278,6.25074 -7.4286,3.15001 z M 1603,384.5 1591.5326,373 h 12.1113 c 9.206,0 12.3921,-0.33846 13.2822,-1.411 0.8291,-0.99902 1.0486,-6.18164 0.7516,-17.75 -0.5593,-21.79119 -0.5638,-28.49182 -0.031,-47.06384 C 1618.164,288.72329 1617.7125,287 1612.4648,287 H 1609 v -9.87288 c 0,-7.77435 0.4351,-10.8564 2.0468,-14.5 2.0409,-4.61376 2.0411,-4.6399 0.088,-9.05612 -3.2729,-7.39905 -10.9555,-9.69877 -17.953,-5.37409 -3.2415,2.00337 -4.9699,2.21031 -19.618,2.34889 -8.8349,0.0836 -17.6751,-0.22698 -19.645,-0.69012 -2.7859,-0.655 -6.6184,-3.94144 -17.25,-14.79209 C 1525.3242,223.48571 1523,220.60973 1523,218.15042 c 0,-2.37308 0.3624,-2.86841 1.8199,-2.48728 3.7234,0.9737 4.2922,-1.68181 3.9787,-18.57553 l -0.2986,-16.09038 2.6276,0.001 c 4.174,0.002 4.9866,-1.94071 4.6644,-11.1517 L 1535.5,161.5 1531.5847,161 c -3.3323,-0.42555 -3.6862,-0.68863 -2.3772,-1.76685 1.1742,-0.96715 7.7735,-1.20372 27.8954,-1 l 26.3573,0.26685 -0.3229,19.55056 c -0.352,21.31466 -0.3142,21.47044 5.3627,22.11095 3.8178,0.43076 4.3857,3.33692 1.5584,7.97451 -2.6735,4.38516 -2.6033,8.75967 0.2075,12.93058 2.5629,3.80308 8.4088,6.48284 12.1138,5.55294 3.7862,-0.95026 8.3603,-5.3016 9.6358,-9.16658 0.9844,-2.98277 0.8507,-4.09787 -0.9332,-7.783 -1.1453,-2.36577 -2.0823,-5.50933 -2.0823,-6.98568 0,-2.39589 0.3722,-2.68428 3.4648,-2.68428 2.4021,0 3.7823,-0.59327 4.5,-1.93426 1.3998,-2.61548 1.3437,-30.29463 -0.068,-33.39219 -0.8099,-1.77754 -0.8005,-2.98546 0.035,-4.54706 0.9813,-1.83363 2.0327,-2.12649 7.6343,-2.12649 5.2796,0 6.6144,0.32772 7.1275,1.75 1.5272,4.23332 4.6174,7.26187 8.6061,8.43444 2.4372,0.71647 6.2266,3.1402 9.0291,5.77509 2.6562,2.49726 5.523,4.79041 6.3707,5.0959 1.0283,0.37054 1.6645,2.20143 1.9112,5.5 0.2034,2.71951 0.6344,8.69038 0.9578,13.26858 l 0.5879,8.32402 -10.9556,11.17598 c -6.0256,6.1468 -11.461,12.15891 -12.0785,13.36025 -0.7997,1.55577 -1.1228,22.86623 -1.1228,74.06281 v 71.87856 l -9.8599,9.68719 c -5.423,5.32795 -10.0428,9.68718 -10.2663,9.68718 -0.2235,0 -5.5667,-5.175 -11.8738,-11.5 z M 229.66667,387.33333 C 229.3,386.96667 229,385.70667 229,384.53333 229,380.50743 227.27065,380 213.55,380 H 200.5 v -6.47407 -6.47407 l 14,-0.27593 14,-0.27593 0.34023,-2.99675 c 0.39974,-3.52087 1.58632,-4.46709 5.62798,-4.48794 2.56088,-0.0132 7.91525,-4.95551 39.01808,-36.01531 19.82743,-19.8 36.37924,-36 36.78179,-36 0.40256,0 0.73192,1.035 0.73192,2.3 0,4.37657 1.37363,4.70008 19.95,4.69855 l 17.55,-0.001 v 9.25145 9.25145 l -18.5,0.5 -18.5,0.5 -0.27109,20.37212 c -0.1851,13.90946 0.0833,20.79912 0.846,21.71815 0.78408,0.94475 4.41701,1.43005 12.18618,1.62788 L 335.33016,357.5 320.21835,372.75 305.10654,388 h -37.3866 c -20.56263,0 -37.68661,-0.3 -38.05327,-0.66667 z M 2060.75,362.9199 c -2.0088,-1.17005 -2.3184,-4.95155 -0.55,-6.7199 3.884,-3.884 9.9863,1.72674 6.3037,5.79594 -2.022,2.23429 -3.1837,2.42084 -5.7537,0.92396 z M 1652.0487,298.45295 1652,237.4059 1655.7922,233.70295 1659.5843,230 H 1683.7922 1708 v 18.42219 18.4222 l -4.75,4.07135 -4.75,4.07135 -13.7814,0.006 c -10.8702,0.005 -13.8946,0.3015 -14.3173,1.40317 -0.7811,2.03538 -1.0011,37.33384 -0.3092,49.60329 0.7014,12.43755 0.1931,16.97365 -1.9871,17.73323 -0.8827,0.30756 -4.8456,3.98091 -8.8063,8.16299 l -7.2013,7.60378 z m -95.8248,19.25197 -25.2239,-25.29507 -0.015,-7.45493 c -0.01,-4.1002 -0.3499,-7.98081 -0.7588,-8.62357 -0.4088,-0.64275 -2.3144,-1.31775 -4.2346,-1.5 L 1522.5,274.5 l -0.2719,-17 -0.2719,-17 12.2863,12.25 12.2864,12.25 h 21.6131 c 17.3003,0 21.8448,0.27922 22.7744,1.39928 0.7495,0.90311 1.0589,4.71502 0.8725,10.75 L 1591.5,286.5 l -3,0.33849 c -5.3539,0.60406 -5.5066,1.11214 -5.4205,18.03395 0.044,8.59516 0.391,19.377 0.7717,23.95964 0.3807,4.58264 0.3449,8.5467 -0.08,8.80902 -0.4244,0.26231 -0.7717,1.57538 -0.7717,2.91792 0,1.34254 -0.3492,2.44098 -0.7761,2.44098 -0.4268,0 -12.1268,-11.38278 -26,-25.29508 z M 1851.8245,338.25 c -4.5251,-4.6724 -4.6027,-4.86428 -4.7529,-11.74523 l -0.1527,-6.99524 -12.821,-13.00476 -12.821,-13.00477 -0.6344,-13 c -0.3489,-7.15 -0.6362,-21.41603 -0.6384,-31.70228 v -18.70229 l 6.25,-0.29771 6.25,-0.29772 -0.2398,-10.5 c -0.2461,-10.77251 -0.3342,-25.32963 -0.2045,-33.75 0.04,-2.6125 -0.2253,-8.14537 -0.5902,-12.29527 -0.5049,-5.74282 -0.2936,-8.43027 0.8845,-11.25 L 1833.902,158 h 15.8511 c 10.9952,0 16.2186,0.36761 17.051,1.2 0.8965,0.89646 1.2,12.17681 1.2,44.59563 v 43.39563 l -2.25,3.15437 c -2.8528,3.99942 -3.0936,11.51223 -0.4622,14.41986 1.5106,1.66921 1.7431,3.50712 1.5,11.85499 L 1866.5,286.5 l -3,0.33849 c -5.3539,0.60406 -5.5066,1.11214 -5.4205,18.03395 0.044,8.59516 0.391,19.377 0.7717,23.95964 0.3807,4.58264 0.3449,8.5467 -0.08,8.80902 -0.4244,0.26231 -0.7717,1.57538 -0.7717,2.91792 0,1.34254 -0.3544,2.44098 -0.7876,2.44098 -0.4332,0 -2.8577,-2.1375 -5.3879,-4.75 z M 228.81789,338.8107 228.5,335.5 l -14,-0.27593 -14,-0.27593 V 330.47407 326 h 12.66821 c 6.96752,0 13.38002,-0.27314 14.25,-0.60699 C 228.77003,324.87427 229,322.44356 229,308.67397 v -16.11204 l 37.25,-37.31724 C 302.24424,219.18547 303.61799,217.9371 307,218.21372 l 3.5,0.28628 0.5,6 0.5,6 18.25,0.27256 18.25,0.27256 V 240.52256 250 h -17.3 c -12.12222,0 -17.65915,0.35915 -18.5,1.2 -0.66,0.66 -1.2,3.28221 -1.2,5.82712 v 4.62713 l -40.03315,39.92287 c -22.01823,21.95759 -40.43768,40.0627 -40.93211,40.23358 -0.49443,0.17089 -1.04202,-1.17911 -1.21685,-3 z m 1359.01881,-8.28271 -0.3367,-6.53219 12.5,0.002 12.5,0.002 -0.1665,6.25036 -0.1665,6.25037 -11.9969,0.28008 -11.9968,0.28009 z M 1674.5,330.5 V 324 h 6.6901 6.6902 l -5.4402,5.14506 c -2.992,2.82978 -5.4401,5.75478 -5.4401,6.5 0,0.74522 -0.5625,1.35494 -1.25,1.35494 -0.8718,0 -1.25,-1.96667 -1.25,-6.5 z m 116,0 V 324 h 12.5 12.5 v 6.5 6.5 h -12.5 -12.5 z m 72.3367,0.028 -0.3367,-6.53219 12.5,0.002 12.5,0.002 -0.1665,6.25036 -0.1665,6.25037 -11.9969,0.28008 -11.9968,0.28009 z m -540.0867,3.3919 c -2.1385,-1.24554 -2.29,-5.22684 -0.263,-6.90912 1.8708,-1.55261 6.0861,-0.56565 6.9254,1.62149 0.7314,1.90613 -1.8716,6.38227 -3.6855,6.33732 -0.6748,-0.0167 -2.0144,-0.48908 -2.9769,-1.04969 z m 421.8462,-2.22593 c -3.7498,-2.74189 0.2363,-9.54247 4.1538,-7.08673 2.4634,1.54424 2.8281,5.49686 0.6538,7.08673 -0.9823,0.71832 -2.064,1.30603 -2.4038,1.30603 -0.3398,0 -1.4215,-0.58771 -2.4038,-1.30603 z m 446.0588,-12.52271 c -2.2956,-2.53659 -2.0724,-4.43047 0.845,-7.17126 l 2.5,-2.34863 v 5.67432 c 0,6.01916 -0.6753,6.79554 -3.345,3.84557 z m -804.4673,-6.32376 0.3123,-4.3475 18.25,-0.27256 18.25,-0.27256 v 3.93024 3.93024 l -17.4214,-0.0152 c -9.5818,-0.008 -17.9349,0.30203 -18.5623,0.68982 -0.8036,0.49668 -1.0485,-0.57988 -0.8286,-3.64243 z m 108.6213,3.64038 c -0.3801,-0.38679 -8.5926,-0.69634 -18.25,-0.68789 L 1459,315.81536 V 311.90768 308 h 18.0314 c 14.5623,0 18.1351,0.27027 18.5704,1.4048 0.739,1.92559 0.064,7.9551 -0.7928,7.08308 z M 1705,311 c 0,-2.8088 0.243,-3 3.8129,-3 2.9312,0 4.4776,0.69374 6.6871,3 l 2.8742,3 H 1711.6871 1705 Z m 41.6667,2.33333 c -0.854,-0.85392 -0.8802,-65.78649 -0.027,-66.63972 0.3519,-0.35185 1.3644,0.81065 2.25,2.58333 2.0901,4.18334 8.0014,7.15367 12.5417,6.30191 4.168,-0.78192 8.1057,-4.62257 9.6547,-9.41663 0.6508,-2.01422 3.3727,-5.99778 6.0486,-8.85236 2.6759,-2.85458 4.8653,-5.66708 4.8653,-6.25 0,-0.67919 3.7713,-1.05986 10.5,-1.05986 h 10.5 v 20.91821 c 0,11.50502 -0.2731,21.63002 -0.607,22.5 -0.4824,1.25707 -2.2234,1.58179 -8.4809,1.58179 -8.9499,0 -8.667,-0.30913 -9.1529,10 l -0.2592,5.5 -6.2341,0.5 -6.2341,0.5 -11.2815,11.25 c -10.7742,10.74399 -12.572,12.09499 -14.0836,10.58333 z M 351.81862,303.49776 351.5,293.99552 l 22.95,0.002 c 17.85,0.002 22.68333,0.26891 21.75,1.20224 -0.70798,0.70798 -1.2,4.11111 -1.2,8.3 0,4.18889 0.49202,7.59202 1.2,8.3 0.93333,0.93333 -3.8292,1.2 -21.43138,1.2 H 352.13724 Z M 1730.4121,301.98845 1719.3243,291 h -5.8887 -5.8887 l 7.6153,-7.75 c 4.1884,-4.2625 8.1154,-8.73292 8.7266,-9.93426 0.7081,-1.39196 1.1112,-9.64411 1.1112,-22.75 V 230 h 6 c 3.7555,0 6,0.41823 6,1.11798 0,0.6149 1.35,2.65556 3,4.5348 l 3,3.41681 v 36.96521 c 0,20.33086 -0.3375,36.96 -0.75,36.95365 -0.4125,-0.006 -5.7395,-4.95635 -11.8379,-11 z M 200,283.10699 c 0,-1.04116 -0.7118,-2.16616 -1.58179,-2.5 C 197.54823,280.27314 179.54823,280 158.41821,280 137.2882,280 120,279.65516 120,279.23369 c 0,-0.42147 5.06954,-5.82147 11.26565,-12 L 142.53129,256 l 19.48436,-0.006 c 10.71639,-0.003 21.06637,-0.44509 22.99995,-0.98228 2.72336,-0.75661 11.11768,-8.60029 37.25,-34.80653 L 256,186.37578 V 172.68789 159 h 16.20714 16.20714 l 14.12035,14 c 8.41008,8.33839 13.43083,14 12.41531,14 -2.69951,0 -3.80679,2.14774 -4.14006,8.03031 L 310.5,200.5 l -6.98998,0.30116 -6.98998,0.30116 -42.05956,41.94884 L 212.40093,285 h -6.20047 C 200.78348,285 200,284.7608 200,283.10699 Z m 1990.75,-7.32363 c -0.9625,-1.20458 -1.75,-2.70476 -1.75,-3.33374 0,-1.25797 3.3592,-5.44962 4.3673,-5.44962 0.348,0 0.6327,2.475 0.6327,5.5 0,6.00626 -0.5945,6.60682 -3.25,3.28336 z M 1596.5,260 c -1.1158,-3.51568 0.3467,-6 3.5322,-6 1.874,0 3.2755,0.70646 3.9678,2 1.608,3.00463 -0.3728,6 -3.9678,6 -2.0192,0 -3.0898,-0.60623 -3.5322,-2 z m 275,0 c -1.1158,-3.51568 0.3467,-6 3.5322,-6 1.874,0 3.2755,0.70646 3.9678,2 1.608,3.00463 -0.3728,6 -3.9678,6 -2.0192,0 -3.0898,-0.60623 -3.5322,-2 z M 19.22896,250.33071 c -0.699072,-0.28127 -1.972025,-1.86696 -2.828784,-3.52375 C 13.751561,241.68511 17.54465,236 23.610554,236 26.003099,236 30,240.69161 30,243.5 c 0,4.90194 -6.041809,8.7335 -10.77104,6.83071 z M 351.81862,240.50224 352.13724,231 h 5.9904 c 4.02895,0 5.77219,0.35307 5.32397,1.0783 -0.36683,0.59354 3.11962,4.86436 7.75526,9.5 l 8.4217,8.4217 -14.06428,0.002 -14.06429,0.002 z m 1100.75278,5.92633 C 1451.7071,245.56429 1451,244.24643 1451,243.5 c 0,-1.7509 2.7491,-4.5 4.5,-4.5 1.7509,0 4.5,2.7491 4.5,4.5 0,1.7509 -2.7491,4.5 -4.5,4.5 -0.7464,0 -2.0643,-0.70714 -2.9286,-1.57143 z m 304.1786,0.49133 c -3.5114,-2.04521 -1.2024,-7.9199 3.1128,-7.9199 1.451,0 4.1372,2.92183 4.1372,4.5 0,1.68335 -2.7335,4.51056 -4.3214,4.46959 -0.6482,-0.0167 -1.9661,-0.48908 -2.9286,-1.04969 z m -420.7179,-15.85997 c -1.6459,-3.07543 0.3586,-6.26908 3.6843,-5.86986 3.3487,0.40197 5.1767,3.16572 3.6776,5.55993 -1.6439,2.62555 -6.024,2.80994 -7.3619,0.30993 z m 335.7291,-13.30993 8.246,-8.25 8.2464,-0.5 8.2464,-0.5 v -9 -9 l -17.5258,-0.27216 -17.5258,-0.27216 0.026,-4.47466 0.026,-4.47465 16.1682,-0.003 c 8.8925,-0.002 16.88,-0.27633 17.75,-0.61018 2.3265,-0.89274 2.3265,-17.89328 0,-18.78602 -0.87,-0.33385 -9.0251,-0.60699 -18.1224,-0.60699 -14.6447,0 -16.3969,-0.17324 -15.2864,-1.51136 1.0874,-1.31019 6.5275,-1.47657 40.8725,-1.25 L 1742.5,158.5 v 15.5 15.5 l -2.5,0.34582 c -4.8311,0.66827 -5,1.31952 -5,19.27662 V 226 h -4.4769 -4.477 l -0.273,-17.75 -0.2731,-17.75 h -9 -9 l -0.2731,17.75 -0.273,17.75 h -21.7194 -21.7193 z M 1755,209.12244 c 0,-18.25057 -0.1217,-18.67712 -5.5,-19.28395 l -3,-0.33849 V 174 158.5 l 40.1182,-0.26123 c 34.7895,-0.22653 40.2849,-0.0605 41.3725,1.25 1.1109,1.33856 -0.7552,1.51123 -16.3331,1.51123 -20.4112,0 -19.6576,-0.39725 -19.6576,10.36283 0,9.68572 -0.1011,9.63655 19.8214,9.64036 l 16.6786,0.003 0.026,4.49682 0.027,4.49681 h -17.6599 c -20.2171,0 -18.853,-0.72679 -18.8794,10.05887 -0.017,6.85346 1.3305,8.75212 6.4863,9.14011 l 4,0.30102 0.2904,8.25 0.2905,8.25 h -10.0174 -10.0174 l -0.273,-17.75 -0.2731,-17.75 h -9 -9 l -0.2731,17.75 -0.273,17.75 h -4.477 H 1755 Z m 65.2085,8.6904 0.2915,-8.31284 4,-0.29718 4,-0.29718 -0.5,8.29718 -0.5,8.29718 -3.7915,0.31284 -3.7914,0.31283 z M 1597.2,217.8 c -2.1374,-2.13736 -1.4101,-5.74716 1.4175,-7.03548 2.3101,-1.05257 2.8385,-0.91964 4.5,1.13222 2.2888,2.82663 2.3276,3.51534 0.3111,5.53183 -1.8715,1.87152 -4.5677,2.0323 -6.2286,0.37143 z M 1437,201.44032 c 0,-8.4026 -0.2821,-10.33459 -1.5818,-10.83333 -2.8828,-1.10624 -15.9697,-0.65552 -17.2182,0.59301 -0.677,0.67696 -1.2,3.92022 -1.2,7.44098 0,3.43254 -0.4241,6.50311 -0.9425,6.82349 -0.5649,0.34913 -1.0657,-4.42295 -1.25,-11.91152 L 1414.5,181.05894 1425,180.77947 1435.5,180.5 v -9.5 -9.5 l -10.9106,-0.5 c -9.0348,-0.41404 -10.6449,-0.71948 -9.3654,-1.77667 1.1398,-0.9417 5.5767,-1.20408 16.9106,-1 L 1447.5,158.5 l 0.5752,4.30968 c 0.519,3.88924 1.7369,5.47455 12.4843,16.25 6.5501,6.56718 12.3663,11.93937 12.9249,11.93821 0.6418,-0.001 0.9016,3.77976 0.7058,10.27273 l -0.3099,10.27483 H 1469.9402 1466 v -9.57272 c 0,-6.11212 -0.4338,-10.00654 -1.2,-10.77273 -1.2485,-1.24853 -14.3354,-1.69925 -17.2182,-0.59301 -1.2997,0.49874 -1.5818,2.43073 -1.5818,10.83333 v 10.22635 h -4.5 -4.5 z m 86.0153,1.00968 c -0.01,-6.46426 -0.4434,-10.47815 -1.2153,-11.25 -1.2485,-1.24853 -14.3354,-1.69925 -17.2182,-0.59301 -0.9434,0.36202 -1.5818,1.78721 -1.5818,3.53138 0,3.75811 -2.599,4.8792 -4.6205,1.99309 -0.8211,-1.1723 -2.1424,-2.13146 -2.9362,-2.13146 -0.7938,0 -1.4433,-0.44919 -1.4433,-0.9982 0,-0.54901 -7.0368,-7.90104 -15.6374,-16.33785 -9.4944,-9.31364 -15.4525,-15.8944 -15.1666,-16.7518 0.6543,-1.96311 60.9008,-2.12182 61.554,-0.16215 0.3149,0.94471 -2.0374,1.25 -9.6315,1.25 -11.7956,0 -12.1185,0.26642 -12.1185,10 0,9.72278 0.3336,10 12.0352,10 H 1525 l -0.015,14.25 c -0.01,7.8375 -0.4515,14.925 -0.9847,15.75 -0.6615,1.0236 -0.9742,-1.69185 -0.9847,-8.55 z M 2190.75,188.78336 c -0.9625,-1.20458 -1.75,-2.70476 -1.75,-3.33374 0,-1.25797 3.3592,-5.44962 4.3673,-5.44962 0.348,0 0.6327,2.475 0.6327,5.5 0,6.00626 -0.5945,6.60682 -3.25,3.28336 z m -810.5117,0.055 c -2.1716,-2.17159 -1.4688,-5.77618 1.3792,-7.0738 2.3143,-1.05447 2.8386,-0.91953 4.5266,1.16508 1.677,2.07108 1.74,2.61372 0.5179,4.46404 -1.6477,2.49477 -4.6895,3.17886 -6.4237,1.44468 z M 26.688972,175.35564 C 26.310037,174.9767 26,172.58167 26,170.03333 c 0,-2.54833 -0.527793,-5.16112 -1.172874,-5.8062 -0.889395,-0.8894 -0.894577,-1.78368 -0.02144,-3.7 L 25.957122,158 h 18.486255 c 17.825275,0 18.526919,0.076 19.623521,2.125 0.822453,1.53677 0.838773,2.71323 0.05896,4.25 -0.593069,1.16875 -1.201506,4.15 -1.352081,6.625 L 62.5,175.5 44.938972,175.77231 c -9.658566,0.14976 -17.871066,-0.0377 -18.25,-0.41667 z m 72,0 C 98.310037,174.9767 98,172.68708 98,170.26759 c 0,-2.41949 -0.396825,-5.15699 -0.881834,-6.08333 -0.492969,-0.94155 -0.507179,-2.67645 -0.03222,-3.93426 0.840037,-2.22465 1.063821,-2.25 19.862774,-2.25 22.04745,0 20.97187,-0.63038 18.76871,11 l -1.23131,6.5 -17.55409,0.27231 c -9.65475,0.14976 -17.86412,-0.0377 -18.243054,-0.41667 z M -5.0495533e-4,160.25 -0.00100991,157.5 9.249495,157.82594 c 7.054805,0.24857 9.547205,0.70931 10.500505,1.94113 0.6875,0.88835 1.25,1.97918 1.25,2.42406 C 21,162.63601 16.275,163 10.5,163 H 0 Z M 68,162.19113 c 0,-0.44488 0.568386,-1.58618 1.26308,-2.53624 1.088001,-1.48792 2.786009,-1.68768 12.25,-1.44113 10.532452,0.2744 11.000138,0.37931 11.306471,2.53624 0.316845,2.23095 0.213105,2.25 -12.25,2.25 C 73.656298,163 68,162.63601 68,162.19113 Z M 140.89678,160.75 c 0.79571,-2.15102 1.32817,-2.25 12.10322,-2.25 10.77505,0 11.30751,0.099 12.10322,2.25 l 0.83233,2.25 H 153 140.06445 Z M 1327,162.19113 c 0,-0.44488 0.5684,-1.58618 1.2631,-2.53624 1.088,-1.48792 2.786,-1.68768 12.25,-1.44113 10.5324,0.2744 11.0001,0.37931 11.3065,2.53624 0.3168,2.23095 0.2131,2.25 -12.25,2.25 C 1332.6563,163 1327,162.63601 1327,162.19113 Z M 1587.8947,160.75 c 0.7818,-2.11838 1.4665,-2.26674 11.7047,-2.53624 9.3576,-0.2463 11.0506,-0.0453 12.1375,1.44113 0.6947,0.95006 1.2631,2.09136 1.2631,2.53624 0,0.44488 -5.8355,0.80887 -12.9678,0.80887 h -12.9678 z m 51.904,-2.29239 c -0.9871,-2.16652 -0.8535,-2.84729 0.9039,-4.60469 2.5877,-2.58764 6.0406,-1.72439 6.9067,1.72672 1.3089,5.21499 -5.5879,7.75625 -7.8106,2.87797 z M -5.0495533e-4,153.35699 C -2.272299e-4,152.17833 0.71180436,150.94083 1.5817875,150.60699 3.9508937,149.69788 21,149.87513 21,150.80887 c 0,0.44488 -0.5625,1.53571 -1.25,2.42406 -0.9533,1.23182 -3.4457,1.69256 -10.500505,1.94113 -8.89113533,0.31328 -9.25048529383,0.24269 -9.24999995533,-1.81707 z M 563.64495,155.18416 c -0.21543,-0.37629 -0.11118,-2.62176 0.23168,-4.98993 l 0.62337,-4.30577 3.93502,4.03741 c 2.16427,2.22058 3.73927,4.20698 3.5,4.41423 -0.9054,0.78425 -7.91567,1.49801 -8.29007,0.84406 z M 25,153 c -0.743097,-1.38849 -0.753855,-2.59141 -0.03518,-3.93426 C 25.534167,148.0019 26,145.0769 26,142.56574 V 138 H 44.5 63 v 4.56574 c 0,2.51116 0.465833,5.43616 1.035184,6.5 0.718671,1.34285 0.707913,2.54577 -0.03518,3.93426 -1.010927,1.88893 -2.093823,2 -19.5,2 -17.406177,0 -18.489073,-0.11107 -19.5,-2 z m 44.052449,0.098 C 68.473602,152.01642 68,150.8769 68,150.56574 68,150.25458 73.656298,150 80.569551,150 c 12.463105,0 12.566845,0.019 12.25,2.25 -0.306846,2.16054 -0.764764,2.26122 -11.517102,2.53226 -10.269115,0.25886 -11.284814,0.11921 -12.25,-1.68426 z m 28.030492,-0.348 c -0.468936,-1.2375 -0.483219,-2.71143 -0.03174,-3.27539 0.451478,-0.56397 0.962154,-3.26397 1.134835,-6 L 98.5,138.5 l 18.04272,-0.27176 18.04272,-0.27175 1.19539,6.97096 c 0.65746,3.83403 0.92759,7.66882 0.60029,8.52176 C 135.87249,154.77467 133.03623,155 116.86079,155 98.153909,155 97.925714,154.974 97.082941,152.75 Z m 43.969509,0.348 C 140.4736,152.01642 140,150.8769 140,150.56574 140,150.25458 145.8355,150 152.96778,150 h 12.96777 l -0.83043,2.25 c -0.7835,2.12285 -1.45684,2.26595 -11.91533,2.53226 -10.15721,0.25864 -11.17297,0.11769 -12.13734,-1.68426 z m 28.44573,0.89906 c -0.57528,-0.93082 -0.0726,-6.74364 1.14561,-13.24706 0.89961,-4.80264 4.14579,-3.51181 12.62967,5.02212 4.2496,4.27467 7.72654,8.09967 7.72654,8.5 0,1.13121 -20.79712,0.86516 -21.50182,-0.27506 z m 259.9847,-0.2393 C 429.22971,153.06599 428.905,146.425 428.76129,139 L 428.5,125.5 390.14765,125 l -38.35236,-0.5 -0.14764,-9.25039 -0.14765,-9.2504 37.16821,4e-4 c 20.44252,2.1e-4 37.88002,-0.27275 38.75,-0.6066 C 428.6084,104.93629 429,103.35361 429,99 c 0,-4.353605 0.3916,-5.936292 1.58179,-6.393011 0.86998,-0.333844 19.20748,-0.617963 40.75,-0.631375 L 510.5,91.951227 535.8275,117.5587 c 23.35749,23.61568 25.18536,25.71521 23.5,26.99258 -1.00512,0.76181 -3.05643,1.39942 -4.55845,1.41692 -2.83607,0.033 -4.0161,2.23133 -3.50619,6.5318 0.23455,1.97818 -0.42588,2.00281 -60.54127,2.25776 -48.09974,0.20398 -60.87443,-0.005 -61.23871,-1 z M 577.3922,134.75721 C 566.45149,123.62367 548.65581,105.84867 537.84624,95.257209 L 518.19248,76 H 475.17803 C 451.52008,76 431.45177,75.726855 430.58179,75.393011 429.42039,74.947343 429,73.405868 429,69.593011 429,66.736855 428.46,63.86 427.8,63.2 426.90899,62.308995 416.86667,62 388.8,62 H 351 V 52.5 43 h 38.44098 c 21.14254,0 38.67699,-0.38186 38.96544,-0.848578 0.28844,-0.466718 0.57359,-10.141718 0.63367,-21.5 L 429.14931,0 h 23.73229 23.73228 l 37.44306,37.656703 C 534.65062,58.36789 569.1625,92.851257 590.75,114.28641 612.3375,135.72156 630,153.65104 630,154.1297 630,154.60837 622.63899,155 613.6422,155 H 597.2844 Z M 579.5,78.899905 C 537.7,37.045654 502.375,2.2834818 501,1.6506334 498.98655,0.72393795 502.04328,0.44698736 516.70598,0.22761151 l 18.20599,-0.27238848 8.29401,8.66905107 C 547.76769,13.392252 582.2125,47.903206 619.75,85.315284 657.2875,122.72736 688,153.71136 688,154.16862 c 0,0.45726 -7.3125,0.83105 -16.25,0.83065 l -16.25,-7.3e-4 z M 639.07056,81.25 C 598.53535,40.6875 564.56013,6.2625 563.57008,4.75 562.58002,3.2375 560.94829,2 559.94401,2 558.93972,2 557.83992,1.55 557.5,1 557.08929,0.33545908 597.07299,-5.2436709e-5 676.69098,-1.5631328e-4 L 796.5,-3.1262656e-4 796.24522,76.249844 c -0.14012,41.937586 -0.4635,76.812656 -0.71861,77.500156 -0.36077,0.97223 -9.60707,1.25 -41.60976,1.25 H 712.77093 Z M 813,79.081787 C 813,37.326771 812.72686,2.4517706 812.39301,1.5817875 811.85706,0.18512437 813.44955,0 826,0 838.55045,0 840.14294,0.18512437 839.60699,1.5817875 839.27314,2.4517706 839,37.326771 839,79.081787 V 155 H 826 813 Z M 856.47339,153.75 c -0.25511,-0.6875 -0.57849,-35.56257 -0.71861,-77.500156 L 855.5,-3.1262656e-4 953.18261,-1.5631328e-4 C 1045.3598,-8.8098568e-6 1050.8929,0.09863045 1051.3564,1.75 c 0.2702,0.9625 0.4898,12.951355 0.488,26.641899 0,19.620034 0.2783,25.070394 1.3262,25.734688 0.7312,0.463533 16.677,0.849678 35.4351,0.8581 L 1122.7114,55 l -0.017,49.25 c -0.012,34.36073 -0.3465,49.47211 -1.1058,49.98469 -0.5985,0.40408 -60.3898,0.74158 -132.86958,0.75 -104.5223,0.0121 -131.87734,-0.24325 -132.24523,-1.23469 z M 1152.69,154.35665 C 1152.3105,153.97716 1152,119.09167 1152,76.833333 V 0 l 295.75,-0.00117076 295.75,-0.00117077 -0.3116,19.72946353 c -0.1714,10.851205 -0.5197,19.937531 -0.774,20.191836 -0.2543,0.254305 -8.7296,-7.761069 -18.8339,-17.811943 L 1705.209,3.8326992 1621.1398,4.1663496 c -78.7677,0.31261 -84.1806,0.4450268 -85.835,2.0998159 -1.3875,1.3878674 -1.5272,2.1481307 -0.652,3.5494512 C 1536.0852,12.109313 1534.157,15 1531.1945,15 c -1.7778,0 -2.1298,-0.6996 -2.3897,-4.75 L 1528.5,5.5 1517.099,5.2529055 c -11.939,-0.2587537 -15.2786,0.6208905 -12.9606,3.413862 0.8878,1.0697215 0.8628,1.9624785 -0.1056,3.7719685 -1.8271,3.413881 -0.5752,4.561264 4.9765,4.561264 3.4559,0 5.1556,-0.472306 5.792,-1.609458 0.8279,-1.479278 0.9507,-1.479278 1.5183,0 0.4403,1.147303 1.9019,1.609458 5.09,1.609458 2.4598,0 4.7505,0.45 5.0904,1 0.8092,1.309362 7.0966,1.286236 9.5657,-0.03518 4.0967,-2.192469 1.4829,1.014431 -10.8846,13.354492 l -12.8189,12.790451 -19.4451,-19.985215 -19.445,-19.985215 -99.4861,-0.3196645 c -54.7173,-0.1758155 -102.0193,-0.083271 -105.1156,0.2056534 -5.5634,0.5191373 -5.7582,0.6485578 -16.5542,11.0000001 -6.0085,5.761075 -23.0502,22.795515 -37.8704,37.85431 L 1187.5,80.259256 1187,117.37963 1186.5,154.5 l -16.56,0.27332 c -9.108,0.15032 -16.8705,-0.0372 -17.25,-0.41667 z m 51.0051,0.005 c -0.3823,-0.38229 -0.6853,-15.35758 -0.6733,-33.27842 l 0.022,-32.58333 34.2282,-34.099308 34.2282,-34.099309 67.75,-0.230662 c 47.9869,-0.163377 67.75,0.08437 67.75,0.849308 0,0.593984 -0.3954,1.079971 -0.8787,1.079971 -1.2623,0 -3.4378,5.678797 -2.6586,6.939643 0.3604,0.583196 1.5288,1.060357 2.5963,1.060357 2.4073,0 2.6851,4.137546 0.4048,6.030007 -1.2829,1.064748 -1.9925,0.837677 -4.3047,-1.377555 -1.5227,-1.458849 -3.4189,-2.642123 -4.2138,-2.629499 -0.7949,0.01262 -3.8697,2.487625 -6.8329,5.5 -3.2155,3.268812 -6.255,5.477147 -7.5387,5.477147 -1.1831,0 -3.9337,0.921378 -6.1125,2.047506 -3.8413,1.985426 -5.4016,2.043119 -51.4614,1.90279 l -47.5,-0.144716 -23.75,23.467929 c -13.0625,12.907361 -23.8457,23.638605 -23.9626,23.84721 -0.1169,0.208604 -0.4544,13.879281 -0.75,30.379281 l -0.5374,30 -12.5549,0.27842 c -6.9052,0.15313 -12.8677,-0.0344 -13.25,-0.41667 z m 124.3573,-1.26375 c -0.5788,-1.08158 -1.0524,-2.2211 -1.0524,-2.53226 0,-0.31116 5.6563,-0.56574 12.5696,-0.56574 12.4631,0 12.5668,0.019 12.25,2.25 -0.3069,2.16054 -0.7648,2.26122 -11.5172,2.53226 -10.2691,0.25886 -11.2848,0.11921 -12.25,-1.68426 z m 28.6143,1.23533 C 1356.3,153.96667 1356,153.03306 1356,152.25864 c 0,-1.18366 4.1032,-1.35008 25.75,-1.04437 24.5718,0.34701 29.9239,0.88633 28.6852,2.89051 -0.6326,1.02356 -52.752,1.2451 -53.7685,0.22855 z m 59.0516,0.0516 c -1.6032,-1.60319 0.8073,-2.34064 5.7515,-1.75954 2.9424,0.34581 7.4153,0.31899 9.94,-0.0596 L 1436,151.87745 v -9.33173 c 0,-7.58684 -0.2958,-9.44524 -1.5818,-9.93873 -0.87,-0.33385 -5.595,-0.60699 -10.5,-0.60699 H 1415 v -15 c 0,-9.33333 0.3778,-15 1,-15 0.5935,0 1.0062,3.76021 1.0153,9.25 0.01,5.0875 0.384,9.83111 0.8346,10.54135 0.5934,0.93539 3.2767,1.21103 9.7347,1 L 1436.5,122.5 l 0.2813,-10.5 0.2813,-10.5 h 4.4687 4.4687 v 10.34362 c 0,9.53857 0.1573,10.38475 2.0211,10.87214 1.4337,0.37494 1.7326,0.87605 1.0285,1.72443 -0.5458,0.65774 -1.1178,7.69028 -1.271,15.62785 L 1447.5,154.5 l -15.5589,0.27442 c -8.5574,0.15094 -15.8577,-0.0243 -16.2228,-0.38948 z m 47.8382,-0.2936 c -0.3089,-0.49977 -0.5064,-7.68953 -0.4389,-15.97726 0.093,-11.47376 0.4519,-15.3418 1.5025,-16.21378 0.9983,-0.82852 1.3799,-3.80741 1.3799,-10.77274 V 101.5 h 4 4 l 0.015,9.5 c 0.01,5.225 0.384,10.08111 0.8346,10.79135 0.5934,0.93539 3.2767,1.21103 9.7347,1 L 1493.5,122.5 l 0.2819,-10.56388 0.282,-10.56388 4.218,0.20157 4.2181,0.20158 0.5,10.3623 0.5,10.36231 8.3469,0.29201 c 5.2937,0.18519 8.8602,-0.13394 9.75,-0.87245 1.0143,-0.84176 1.4073,-3.69383 1.4184,-10.292 0.01,-6.26253 0.3196,-8.65673 0.9847,-7.62756 0.5332,0.825 0.9763,7.4625 0.9847,14.75 L 1525,132 h -9.4286 c -11.9556,0 -12.577,0.51082 -12.5561,10.32143 0.01,3.94821 0.4421,7.85357 0.9637,8.67857 0.7131,1.12777 3.1288,1.53542 9.7347,1.64274 11.4732,0.18638 11.5073,0.19067 10.7863,1.35726 -0.7916,1.28088 -60.1534,1.36985 -60.9435,0.0913 z m 65.9391,-0.0984 c -0.6356,-1.02849 0.4526,-1.62581 4.0044,-2.19809 1.8277,-0.29448 2,-1.09632 2,-9.30855 V 133.5 l -3.25,-0.9568 -3.25,-0.95679 V 118.6975 c 0,-10.28901 0.3398,-13.46414 1.6845,-15.74056 1.399,-2.36837 1.4792,-3.302235 0.473,-5.510545 -1.0333,-2.267826 -1.7131,-2.600341 -4.6223,-2.260717 -4.4589,0.520561 -4.5699,0.09822 -5.1734,-19.685678 l -0.4881,-16 19.8701,-19.75 L 1560.614,20 h 36.2502 c 35.362,0 45.1358,0.709027 45.1358,3.274324 0,0.570292 1.125,2.511845 2.5,4.314563 1.375,1.802718 2.5,3.679253 2.5,4.170077 0,1.1654 4.3482,5.241036 5.5916,5.241036 1.438,0 7.3904,5.688862 7.5269,7.193629 0.065,0.718504 0.039,1.89598 -0.058,2.616612 C 1659.318,52.33521 1665.8743,60 1671.343,60 c 2.7365,0 4.8188,1.633825 14.657,11.5 l 11.4674,11.5 h -16.2689 c -13.1559,0 -16.7311,-0.302886 -18.6847,-1.582928 -4.9341,-3.232913 -10.429,2.010987 -7.2274,6.897217 0.9926,1.514932 1.6587,5.115871 1.8112,9.790964 l 0.2413,7.394747 -21.6165,0.5 -21.6164,0.5 -3.6039,3.5 -3.6039,3.5 -11.6991,0.5 -11.6991,0.5 -0.2747,16.86776 c -0.1511,9.27727 0.1346,17.37727 0.6348,18 0.5204,0.64773 0.5447,2.09507 0.057,3.38224 l -0.8527,2.25 h -26.4732 c -16.6939,0 -26.7031,-0.37201 -27.0956,-1.00706 z m 59.1711,0.34039 c -0.3667,-0.36666 -0.6667,-1.49166 -0.6667,-2.5 0,-1.67449 1.0253,-1.83333 11.8333,-1.83333 6.5084,0 12.1175,0.28417 12.4648,0.63148 0.3474,0.34732 0.1815,1.47232 -0.3685,2.5 -0.8817,1.64759 -2.2767,1.86852 -11.7981,1.86852 -5.939,0 -11.0982,-0.3 -11.4648,-0.66667 z M 1617,153 c -0.7431,-1.38849 -0.7539,-2.59141 -0.035,-3.93426 0.5694,-1.06384 1.0352,-6.6104 1.0352,-12.32568 0,-9.60215 0.1778,-10.55843 2.3403,-12.59005 2.2501,-2.11382 3.0055,-2.18803 19.5886,-1.92431 l 17.2482,0.2743 0.1623,5.75 c 0.1173,4.15784 -0.2007,5.75 -1.1484,5.75 -0.7209,0 -3.6463,2.18938 -6.5009,4.8653 -2.8545,2.67591 -6.8114,5.38897 -8.793,6.02902 -3.7184,1.20099 -6.7876,3.93856 -8.8073,7.85568 -1.0208,1.97975 -1.9324,2.25 -7.5898,2.25 -5.4062,0 -6.6,-0.31836 -7.5,-2 z m 44.6779,1.34452 c -1.9159,-1.91584 0.7719,-2.32068 17.0721,-2.57145 L 1696.5,151.5 v -9 -9 l -17.5258,-0.27216 -17.5258,-0.27216 0.026,-4.47466 0.026,-4.47465 16.1682,-0.003 c 8.8925,-0.002 16.88,-0.27633 17.75,-0.61018 2.3265,-0.89274 2.3265,-17.89328 0,-18.78602 -0.87,-0.33385 -8.8575,-0.60598 -17.75,-0.60474 l -16.1682,0.002 0.3299,-6.946088 c 0.1836,-3.866127 0.8726,-7.396535 1.5539,-7.961965 0.7207,-0.598158 9.0145,-1.069527 20.1701,-1.146344 l 18.9461,-0.130461 2,2.658175 c 1.7231,2.290116 2.0692,4.691098 2.5,17.340173 l 0.5,14.682 h 9 9 l 0.2724,-17.58465 0.2724,-17.584658 4.2276,0.08465 4.2276,0.08465 0.5,17.499998 0.5,17.5 3.5,0.5 3.5,0.5 v 15.5 15.5 l -40.0721,0.26119 c -22.0397,0.14366 -40.3772,-0.0438 -40.75,-0.41667 z m 84.762,-0.64051 c -0.2735,-0.71279 -0.3719,-7.80029 -0.2186,-15.75 L 1746.5,123.5 l 3.4913,-0.33135 c 1.9202,-0.18225 3.8258,-0.85725 4.2346,-1.5 0.4089,-0.64276 0.7518,-8.59365 0.762,-17.66865 l 0.018,-16.5 4.4746,-0.02582 4.4747,-0.02582 0.2721,17.52582 L 1764.5,122.5 h 9 9 l 0.2722,-17.54598 0.2723,-17.545974 6.7277,0.395095 6.7278,0.395094 7.9566,7.900882 7.9566,7.900883 h -9.1714 c -10.8062,0 -11.2418,0.38749 -11.2418,10 0,10.32879 -0.6348,9.9995 19.2852,10.00319 l 17.2148,0.003 0.026,4.49682 0.027,4.49681 h -17.6599 c -20.1796,0 -18.8525,-0.69002 -18.8794,9.81574 -0.024,9.42152 -0.5317,9.18426 19.6439,9.18426 15.5198,0 17.4409,0.17634 16.3424,1.5 -1.0685,1.28748 -6.8992,1.5 -41.1538,1.5 -31.7599,0 -40.0105,-0.26463 -40.4063,-1.29599 z m 86.4325,-0.3555 c -2.2196,-2.67098 -1.3088,-27.3517 1.0093,-27.34735 0.3401,6.4e-4 6.8419,6.23863 14.4486,13.8622 10.7228,10.74663 13.4568,14.00435 12.1682,14.49884 -0.9141,0.35079 -7.1952,0.6378 -13.9578,0.6378 -10.2102,0 -12.5286,-0.28013 -13.6683,-1.65149 z M 1858.1299,129.41464 1833,103.78949 v -9.194744 c 0,-5.818136 -0.4407,-9.635425 -1.2,-10.394746 -0.7667,-0.766656 -4.6665,-1.2 -10.7994,-1.2 h -9.5994 l -12.7006,-12.835935 c -9.2022,-9.300236 -12.7016,-13.500896 -12.7043,-15.25 -0.01,-3.815184 -3.7,-8.892312 -7.6799,-10.555205 -5.0924,-2.127743 -9.4917,-1.062161 -13.24,3.206919 -3.9922,4.54682 -4.3764,9.293872 -1.2087,14.934221 1.3205,2.351149 1.6112,4.946553 1.3441,12 l -0.3408,9 -5.6855,-0.160189 -5.6855,-0.160189 -0.5,-16.037845 -0.5,-16.037844 -3.1973,-3.301966 L 1746.1054,44.5 1745.8027,22.248964 1745.5,-0.00207227 1777.635,-0.00103613 1809.77,0 l 1.5002,2.25 c 0.8251,1.2375 26.762,27.513728 57.6375,58.391619 l 56.1372,56.141621 -0.2724,18.85838 -0.2725,18.85838 -20.6201,0.26989 -20.6201,0.2699 z m 83.5368,24.91869 C 1941.3,153.96667 1941,143.72992 1941,131.58501 v -22.08165 l -54.7991,-54.773008 -54.7991,-54.77300491 18.5491,0.27132645 c 12.4374,0.1819278 18.487,0.62233128 18.3607,1.33663206 -0.1037,0.5859181 22.2838,23.5342304 49.75,50.9962504 L 1968,102.4925 V 128.74625 155 h -12.8333 c -7.0584,0 -13.1334,-0.3 -13.5,-0.66667 z M 1985,125.25982 V 95.504024 L 1937.2183,47.752012 1889.4366,0 h 152.2237 152.2236 l 0.01,56.25 0.01,56.25 -41.7156,-0.28097 c -35.1564,-0.23679 -42.0274,-0.0533 -43.699,1.16728 -1.8309,1.33679 -2.022,2.97459 -2.4835,21.28097 l -0.5,19.83272 -60.25,0.25781 -60.25,0.2578 z m 205.75,20.27065 c -2.2303,-3.06721 -2.2104,-4.80384 0.079,-6.87548 2.8029,-2.53656 3.1713,-2.0899 3.1713,3.84501 0,6.0533 -0.6269,6.63787 -3.25,3.03047 z M 197.47915,125.92604 c -10.08373,-10.19021 -14.3859,-12.91955 -19.21635,-12.19103 -1.78046,0.26853 -4.34559,0.21004 -5.70029,-0.12997 -2.21096,-0.55491 -2.49377,-1.20613 -2.7628,-6.36162 L 169.5,101.5 H 153 136.5 l -0.31396,4.97461 c -0.17268,2.73603 -0.75653,5.50786 -1.29744,6.15961 -0.98718,1.18949 -31.291,1.81606 -35.1386,0.72655 C 98.399655,112.97839 98,111.78442 98,108.13261 98,105.52968 97.46,102.86 96.8,102.2 c -1.677508,-1.67751 -30.922492,-1.67751 -32.6,0 -0.66,0.66 -1.2,3.35143 -1.2,5.98095 0,5.94393 0.545242,5.79697 -20.5,5.52547 L 26.5,113.5 26,108 c -0.410791,-4.5187 -0.908884,-5.67842 -2.791727,-6.5 -2.655971,-1.15894 -3.475854,-3.621769 -3.02786,-9.095323 L 20.5,88.5 l 81.48608,-0.255932 81.48609,-0.255931 22.70799,22.691903 c 12.4894,12.48054 22.48161,23.05821 22.20491,23.50593 C 228.10836,134.63369 223.06164,135 217.17013,135 H 206.4583 Z m 58.91489,7.65843 c -0.29875,-0.77854 -0.39713,-2.60632 -0.21861,-4.06174 l 0.32457,-2.64622 3.95295,4.06174 L 264.4059,135 h -3.73434 c -2.29787,0 -3.94327,-0.5445 -4.27752,-1.41553 z m 53.72427,-3.58954 C 309.95275,127.88886 237.21708,55.551345 233.29966,53.596781 230.50708,52.20345 224.19764,52 183.77991,52 H 137.4605 L 128,42.5 118.5395,33 h 37.26543 c 32.30839,0 37.58679,0.210561 39.68129,1.582928 1.41623,0.92795 3.26411,1.313703 4.46588,0.932275 2.32363,-0.737492 4.44632,-4.061534 3.53513,-5.53587 C 203.12147,29.387531 204.96789,29 208.15333,29 h 5.27137 l 30.60516,30.578198 c 16.83284,16.818009 31.24978,30.986118 32.03765,31.484687 0.78787,0.498569 8.25819,0.91338 16.6007,0.921802 8.34252,0.0084 15.88002,0.288458 16.75,0.622302 1.1614,0.445668 1.58179,1.987143 1.58179,5.8 0,2.856151 0.54,5.733011 1.2,6.393011 0.83957,0.83957 6.32108,1.19971 18.25,1.19904 l 17.05,-9.6e-4 -0.19045,9.25096 -0.19044,9.25096 -17.80118,0.5 -17.80118,0.5 -0.64006,3 c -0.35203,1.65 -0.6933,2.32272 -0.75838,1.49493 z M 1436.8009,94.640944 c -0.2517,-2.530555 -0.8737,-3.168478 -3.8009,-3.898029 -2.6384,-0.657561 -7.5163,-4.856801 -19.8145,-17.05761 -8.973,-8.901918 -16.7547,-16.979111 -17.2927,-17.949319 C 1394.7294,53.637848 1395.7734,47 1397.2669,47 c 0.5744,0 2.5193,-1.125 4.322,-2.5 1.8027,-1.375 3.6723,-2.5 4.1545,-2.5 1.2995,0 7.2566,-6.054599 7.2566,-7.375311 0,-0.625898 2.7368,-4.060002 6.0818,-7.631343 l 6.0817,-6.493346 19.5805,-0.328505 19.5805,-0.328504 19.8952,19.828504 L 1504.1148,59.5 1503.9457,73 c -0.093,7.425 -0.3935,16.0125 -0.6677,19.083333 l -0.4986,5.583334 h -4.3388 c -4.1152,0 -4.3543,-0.158893 -4.6397,-3.083334 L 1493.5,91.5 h -9.5 -9.5 l -0.3037,3.120408 c -0.2831,2.909379 -0.5588,3.113719 -4.0757,3.021501 -3.6887,-0.09672 -3.798,-0.210611 -4.9463,-5.149689 -1.7181,-7.389685 -1.4457,-12.300118 0.9576,-17.264643 1.8309,-3.782172 1.9744,-4.929275 1.0168,-8.125611 -3.6994,-12.347475 -19.598,-12.347475 -23.2974,0 -0.9576,3.196336 -0.8141,4.343439 1.0168,8.125611 2.2026,4.550002 2.5545,8.611177 1.5037,17.355756 l -0.6109,5.083334 h -4.3295 c -4.0858,0 -4.3465,-0.170336 -4.6305,-3.025723 z M 1822.75,93.547885 C 1820.1375,91.142898 1818,88.910766 1818,88.587591 1818,88.264416 1820.25,88 1823,88 h 5 v 5 c 0,2.75 -0.1125,4.982133 -0.25,4.960295 -0.1375,-0.02184 -2.3875,-2.007422 -5,-4.41241 z M 1703.6935,66.233948 c -12.2789,-12.164823 -18.4835,-19.065671 -19.7573,-21.974597 -2.019,-4.610397 -6.8377,-8.2486 -10.9362,-8.256997 -1.4988,-0.0031 -4.3022,-1.612379 -7,-4.018254 -4.9085,-4.377467 -6.9706,-4.675894 -8.4871,-1.228258 -1.1024,2.506185 -3.6887,2.942236 -5.378,0.906741 -0.849,-1.023038 -0.515,-1.896319 1.421,-3.715069 1.6785,-1.576881 2.4321,-3.231394 2.2375,-4.912583 L 1655.5,20.5 l 21.0138,-0.2692 21.0138,-0.269201 19.7362,19.826192 19.7362,19.826191 -0.015,10.943009 c -0.01,6.018655 -0.3459,11.393009 -0.75,11.943009 -0.4041,0.55 -3.8636,1.105277 -7.6878,1.233948 l -6.9531,0.233948 z M 1782,79.437129 C 1782,76.996708 1782.3617,75 1782.8038,75 c 1.0429,0 7.6947,6.853073 7.1278,7.343478 -0.2374,0.205392 -2.1191,0.633841 -4.1816,0.95211 L 1782,83.874259 Z M 18.33677,75.523329 c -6.682732,-4.680768 -0.862121,-14.996836 6.929157,-12.280782 5.086266,1.773082 6.361866,7.879593 2.419622,11.583139 -2.688046,2.525288 -6.349371,2.79851 -9.348779,0.697643 z M 0.02223585,38.25 0,0 h 37.893011 c 33.63098,0 37.961283,0.17791218 38.5,1.5817875 C 76.726855,2.4517706 77,8.5002129 77,15.02277 c 0,8.398716 0.364747,12.090067 1.25,12.650398 0.6875,0.435161 3.5,1.024219 6.25,1.309017 4.427965,0.458573 5.032029,0.803832 5.279955,3.017815 0.649688,5.801731 1.634922,7.605159 7.480481,13.692702 L 103.41046,52.097316 60.174229,51.936288 16.937996,51.77526 12.929961,54.427652 C 8.1199745,57.61075 5.2727409,61.998428 4.4479164,67.498751 4.1127359,69.733895 2.9848415,72.673553 1.9414845,74.031325 0.06872797,76.468434 0.04418737,76.010914 0.02223585,38.25 Z M 256.72618,48.208833 229,20.417666 V 11.79062 C 229,7.0457454 229.27314,2.4517706 229.60699,1.5817875 230.14664,0.17547614 234.70154,0 270.66601,0 c 22.69401,0 40.21591,0.38204835 39.91416,0.87029029 -0.29583,0.47865961 -4.08745,1.07577201 -8.42582,1.32691641 -8.51253,0.4927825 -15.68262,3.614157 -18.60483,8.0992923 -2.87389,4.410955 -4.02664,11.167638 -2.67499,15.679052 2.81753,9.404075 11.10987,14.663883 23.62547,14.985563 3.3,0.08482 6.4275,0.578265 6.95,1.09655 C 311.9725,42.575949 320.15412,43 329.63138,43 h 17.23138 l 0.31862,9.502242 0.31862,9.502243 -17.05,-0.0022 c -11.93044,-0.0016 -17.41032,0.358079 -18.25,1.197758 -0.66,0.66 -1.2,3.536855 -1.2,6.393011 0,3.812857 -0.42039,5.354332 -1.58179,5.8 C 308.54823,75.726855 302.57501,76 296.14439,76 H 284.45236 Z M 1452.2,72.8 c -1.8555,-1.855461 -1.4247,-4.529175 1.0036,-6.230069 1.8778,-1.315218 2.5063,-1.342906 4.25,-0.187224 2.497,1.654865 3.1231,4.217447 1.5065,6.165332 -1.4611,1.760563 -5.1153,1.896761 -6.7601,0.251961 z m -71.45,-13.866661 c -2.0091,-1.185611 -2.3178,-4.965502 -0.55,-6.733339 1.8555,-1.855461 4.5292,-1.424744 6.2301,1.003621 1.3152,1.877738 1.3429,2.506251 0.1872,4.25 -1.6077,2.425742 -3.4688,2.895118 -5.8673,1.479718 z m 389.9172,-0.998031 c -0.7954,-1.135581 -1.2171,-2.940504 -0.9372,-4.010939 0.6298,-2.408437 4.777,-3.578419 6.783,-1.913592 2.1028,1.74522 1.8468,5.726292 -0.4473,6.954039 -2.7789,1.487223 -3.7678,1.298636 -5.3985,-1.029508 z M 1670.2036,51.430069 C 1666.4268,48.784709 1667.9556,44 1672.5776,44 c 4.5513,0 5.7887,5.024149 1.876,7.617293 -1.7437,1.155682 -2.3722,1.127994 -4.25,-0.187224 z M 126.63216,28 c -0.0982,-0.275 -0.0208,-6.6875 0.17209,-14.25 L 127.15496,0 H 153.07748 179 v 12.565741 c 0,6.911158 0.40588,13.323658 0.90196,14.25 C 180.7372,28.375434 178.80728,28.5 153.80734,28.5 138.95923,28.5 126.7304,28.275 126.63216,28 Z m 167.82239,-1.454545 c -3.34023,-3.34023 -3.26408,-7.76352 0.18031,-10.472875 4.27102,-3.359583 8.52735,-2.593366 10.88139,1.95885 1.86082,3.598417 0.39313,8.233199 -3.11308,9.830734 -3.67023,1.672268 -5.21565,1.416265 -7.94862,-1.316709 z"
       id="path2" />
  </g>
  </g>
</svg>
