<svg 
    xmlns="http://www.w3.org/2000/svg" 
    viewBox="0 0 650.75 645.47">
    <defs>
        <style>
            .cls-1{
                fill: #76B900;
                }
            .cls-2,
            .cls-3{
                fill:#272727;
                stroke: #272727;
                stroke-miterlimit:10;
                }
            .cls-2{
                stroke-width:4.94px;
                }
            .cls-3{
                stroke-width:4.83px;
                }
        </style>
    </defs>
    <title>Nvidia-jetson-Logo</title>
    <g id="Capa_1" data-name="Capa 1">
        <path class="cls-1" d="M561.3,431.49v112.6h31.8V431.49Zm-250.16-.15V544.09h32.08V458.47h24.86c8.23,0,14.09,2,18.06,6.28,5,5.36,7.08,14,7.08,29.82v49.51h31.09v-62.3c0-44.46-28.34-50.46-56.07-50.46h-57.1Zm301.36.15v112.6h51.59c27.48,0,36.44-4.57,46.14-14.82,6.86-7.19,11.29-23,11.29-40.24,0-15.83-3.75-29.95-10.29-38.74-11.78-15.73-28.76-18.8-54.09-18.8ZM644.05,456h13.67c19.84,0,32.67,8.9,32.67,32s-12.83,32-32.67,32H644.05V456Zm-128.6-24.52-26.54,89.24L463.48,431.5H429.15l36.32,112.6H511.3l36.61-112.6Zm220.87,112.6h31.81V431.5H736.31Zm89.15-112.56L781.06,544.05h31.36l7-19.89H872l6.64,19.89h34.05L868,431.52Zm20.64,20.53,19.27,52.71H826.24Z" 
            transform="translate(-261.94 -76.95)"/>
    </g>
    
    <g id="NVIDIA_Logo_V" data-name="NVIDIA Logo V">
        <path id="Eye_Mark" data-name="Eye Mark" class="cls-1" d="M519.71,166.15v-27c2.66-.17,5.32-.33,8-.33C601.58,136.53,650,202.43,650,202.43S597.76,275,541.67,275a69.08,69.08,0,0,1-21.8-3.5V189.61c28.79,3.5,34.62,16.15,51.76,44.94l38.44-32.29S582,165.48,534.69,165.48a113.49,113.49,0,0,0-15,.67m0-89.2v40.27l8-.5c102.67-3.49,169.74,84.21,169.74,84.21s-76.88,93.53-156.93,93.53a123.14,123.14,0,0,1-20.64-1.83v25A146.72,146.72,0,0,0,537,318.75c74.55,0,128.47-38.11,180.72-83,8.66,7,44.1,23.8,51.43,31.12-49.6,41.61-165.26,75.05-230.82,75.05a164.67,164.67,0,0,1-18.31-1V376H803.28V77Zm0,194.54v21.3c-68.9-12.31-88-84-88-84s33.12-36.61,88-42.6v23.3h-.17c-28.79-3.5-51.42,23.46-51.42,23.46s12.81,45.43,51.59,58.58M397.39,205.76s40.77-60.25,122.48-66.57v-22c-90.53,7.33-168.74,83.88-168.74,83.88s44.26,128.14,168.58,139.79v-23.3C428.51,306.27,397.39,205.76,397.39,205.76Z" 
            transform="translate(-261.94 -76.95)"/>
    </g>
    <g id="Capa_4" data-name="Capa 4">
        <path class="cls-2" d="M334.44,681.67q0,17.58-11,27.93T294.69,720q-17.73,0-29.19-11l9.13-8.79a32.19,32.19,0,0,0,8.51,6q4.38,2.07,11.55,2.07,12.53,0,19.34-7.33t6.8-20.94v-83.8h13.61Z" 
            transform="translate(-261.94 -76.95)"/>
        <path class="cls-2" d="M449.69,718.91H370.54V596.15h79.15v11.72H384.15v43.28H440v11.73H384.15v44.31h65.54Z" 
            transform="translate(-261.94 -76.95)"/>
        <path class="cls-2" d="M552.3,607.87H515.41v111H501.8v-111H464.91V596.15H552.3Z" 
            transform="translate(-261.94 -76.95)"/>
        <path class="cls-2" d="M652.94,685.12q0,16-12,25.43T608.89,720q-14.34,0-24.54-3.8a53.73,53.73,0,0,1-19-12.41L574.5,695a45.61,45.61,0,0,0,15.67,10.34,55.2,55.2,0,0,0,19.07,2.93q14.14,0,22.21-6t8.06-16.81q0-10-6.27-15.34-4.83-4.32-16.65-6L601.72,662q-15-2.24-23.28-9.31-9.84-8.44-9.85-23.1,0-15.69,11-25.09t29.81-9.4a61.77,61.77,0,0,1,20.86,3.19,55.13,55.13,0,0,1,17.11,10.26L638.61,617Q627,606.32,608.89,606.32q-12.72,0-19.88,6.21t-7.17,16.72q0,9.5,5.74,14.31,5.53,4.66,16.65,6.38l14.86,2.24A76.85,76.85,0,0,1,633,655.37a29.08,29.08,0,0,1,9.22,5.61Q652.94,670,652.94,685.12Z" 
            transform="translate(-261.94 -76.95)"/>
        <path class="cls-2" d="M763.6,625.11q2.16,9.66,2.15,32.42T763.6,690q-2.15,9.64-10.74,17.93Q740.32,720,721.16,720q-19.33,0-31.87-12.07-8.41-8.1-10.57-17.76t-2.15-32.59q0-22.93,2.15-32.59t10.57-17.76q12.53-12.06,31.87-12.07,19.17,0,31.7,12.07Q761.46,615.46,763.6,625.11Zm-13.07,60.61q1.62-8.19,1.61-28.19t-1.61-28.19a26.19,26.19,0,0,0-7.34-13.88,32.45,32.45,0,0,0-44.05,0,26.19,26.19,0,0,0-7.34,13.88q-1.62,8.19-1.62,28.19t1.62,28.19a26.19,26.19,0,0,0,7.34,13.88,32.45,32.45,0,0,0,44.05,0A26.19,26.19,0,0,0,750.53,685.72Z" 
            transform="translate(-261.94 -76.95)"/>
        <path class="cls-3" d="M888,718.91H875.65l-64.81-98.45v98.45h-13V596.15h12.34L875,694.26V596.15h13Z" 
            transform="translate(-261.94 -76.95)"/>
    </g>
</svg>