<svg
  class="brand-logo logo"
  viewBox="0 0 1792 392"
  xmlns="http://www.w3.org/2000/svg"
  role="img"
  aria-label="IOBEWI">
  <g
     id="g1">
    <path
       fill="#19c7da"
       d="m 314.4454,368.53201 c -39.80678,-6.47704 -75.15724,-26.39481 -99.92387,-56.30083 -9.31327,-11.24589 -14.20153,-18.90849 -20.75816,-32.53943 -9.68241,-20.12932 -13.95975,-35.45186 -16.05382,-57.50891 -3.18746,-33.57371 6.98927,-71.78165 27.22251,-102.20536 8.35358,-12.56087 30.06527,-34.338602 42.43185,-42.560932 52.0557,-34.61093 115.59681,-37.08675 169.95388,-6.62211 22.38945,12.54826 44.85567,34.521052 58.0929,56.816992 28.64575,48.2491 30.42405,105.45789 4.83322,155.48761 -22.11059,43.22589 -62.11176,73.45042 -111.16482,83.99512 -12.94093,2.78186 -41.71895,3.53924 -54.63369,1.43785 z m 48.06727,-70.38775 c 10.17526,-2.94049 16.91425,-6.10529 25.94953,-12.18655 23.48747,-15.80842 37.71377,-39.29716 40.20325,-66.37872 2.54698,-27.70715 -5.5647,-52.22557 -24.04873,-72.68982 -10.91173,-12.08072 -29.59078,-22.60969 -46.95389,-26.46684 -8.92187,-1.98196 -28.73284,-2.23686 -37.73404,-0.48549 -16.49589,3.2096 -35.16368,13.15736 -47.111,25.10468 -11.9637,11.9637 -21.94422,30.70777 -25.08485,47.111 -1.98511,10.3681 -1.53911,28.94802 0.94076,39.19035 8.20187,33.87529 35.37594,60.44231 69.65966,68.10349 10.09277,2.25537 34.34224,1.54066 44.17931,-1.3021 z M 35.277675,117.79758 C 35.009579,117.09893 34.90893,101.45551 35.05401,83.034418 l 0.263783,-33.49289 h 34.5 34.499997 v 34.5 34.500002 l -34.276332,0.26316 c -26.983516,0.20717 -34.380048,-0.007 -34.763783,-1.00711 z m 1649.999925,0 c -0.2681,-0.69865 -0.3688,-16.34207 -0.2237,-34.763162 l 0.2638,-33.49289 h 34.5 34.5 v 34.5 34.500002 l -34.2763,0.26316 c -26.9836,0.20717 -34.3801,-0.007 -34.7638,-1.00711 z"
       id="path5"/>
    <path
       fill="var(--logo-text-color)"
       d="m 1219.8246,211.03324 -52.6217,-159.749986 37.0664,-0.26233 c 20.3866,-0.14428 37.2158,-0.11301 37.3983,0.0695 0.1825,0.1825 13.7795,42.07596 30.2156,93.096576 16.4361,51.02062 30.6174,93.49828 31.5139,94.39481 1.4297,1.42972 1.8028,1.45008 3.0365,0.16574 0.7736,-0.80536 13.416,-39.26429 28.0942,-85.46429 14.6782,-46.2 28.0164,-88.162496 29.6404,-93.249996 l 2.9528,-9.25 h 29.403 29.4029 l 3.4586,10.75 c 1.9022,5.9125 15.2576,47.874996 29.6785,93.249996 14.421,45.375 26.6672,83.0625 27.214,83.75 1.1439,1.43844 1.7745,1.52099 3.456,0.45229 0.9119,-0.57955 61.2931,-185.539336 61.2931,-187.752956 0,-0.24713 16.9231,-0.44933 37.607,-0.44933 34.2204,0 37.5511,0.14555 36.9867,1.61632 -0.3411,0.88897 -24.0992,72.888966 -52.7958,159.999986 l -52.1757,158.38368 h -29.2041 c -26.89,0 -29.2575,-0.13867 -29.8781,-1.75 -0.3707,-0.9625 -14.4122,-41.8 -31.2034,-90.75 -16.7911,-48.95 -31.1694,-89.66737 -31.9517,-90.48305 -1.0569,-1.10192 -1.8519,-1.21213 -3.0937,-0.42884 -1.0586,0.66776 -13.1355,34.38597 -32.9458,91.98305 -17.201,50.01086 -31.2904,91.04134 -31.3099,91.17884 -0.019,0.1375 -13.2162,0.25 -29.3259,0.25 h -29.2905 z m -1183.797482,46.75 v -112 h 34 33.999992 v 112 112 h -33.999992 -34 z M 572.02712,210.2697 V 50.682694 l 78.75,0.38272 c 85.58463,0.41593 83.0001,0.25337 98.84402,6.217 22.34378,8.41018 44.16969,30.55236 52.32075,53.078926 1.77293,4.89972 3.92993,13.63658 4.79335,19.41524 2.95025,19.74551 -1.3391,41.44332 -11.66478,59.00666 -2.74849,4.675 -5.00762,9.06063 -5.02029,9.74585 -0.0127,0.68522 2.93005,4.46379 6.5394,8.39683 11.64335,12.68755 18.45171,24.34051 23.11375,39.56073 2.47218,8.07099 2.69978,10.24011 2.75912,26.29659 0.0563,15.2382 -0.22991,18.57747 -2.21464,25.83663 -6.1663,22.55324 -20.55653,42.27532 -40.55566,55.58228 -9.23152,6.14245 -14.42697,8.55756 -26.66502,12.39528 l -8.5,2.6655 -86.25,0.2969 -86.25,0.29689 z M 734.2279,312.65886 c 12.82068,-2.72027 22.09025,-9.70928 27.67416,-20.8656 6.49627,-12.97915 6.53159,-23.54081 0.1225,-36.6326 -3.71249,-7.58347 -10.07182,-13.5694 -18.81783,-17.7129 l -6.67961,-3.16452 -46.85211,-0.2877 c -34.44905,-0.21154 -47.22217,0.0194 -48.25,0.87244 -1.9029,1.57927 -2.09194,75.82121 -0.19789,77.71526 1.63665,1.63665 85.32291,1.7047 93.00078,0.0756 z m -5.98829,-137.88998 c 8.83041,-3.36409 13.93352,-7.84541 18.34076,-16.10604 3.69332,-6.9225 3.93749,-7.9061 3.94197,-15.8796 0.004,-7.47013 -0.3736,-9.28754 -3.1182,-15 -3.82721,-7.96573 -7.94443,-12.21462 -15.83352,-16.33984 l -6.0435,-3.16015 -41.34689,-0.29204 c -30.36594,-0.21447 -41.71953,0.0172 -42.75,0.87245 -1.90313,1.57945 -2.09567,64.82702 -0.20311,66.71958 0.89359,0.89359 11.48055,1.2 41.46249,1.2 37.94156,0 40.56728,-0.11612 45.55,-2.01436 z m 169.78751,35.51436 V 50.783254 h 107.49998 107.5 v 28.5 28.499996 h -72.3 c -54.89998,0 -72.58878,0.28879 -73.49998,1.2 -1.71956,1.71955 -1.71956,69.88043 0,71.59999 0.90744,0.90744 16.26667,1.2 62.99998,1.2 h 61.8 v 31 31 h -61.8 c -46.73331,0 -62.09254,0.29256 -62.99998,1.2 -1.71757,1.71757 -1.71757,65.88243 0,67.6 0.9112,0.9112 18.6,1.2 73.49998,1.2 h 72.3 v 28 28 h -107.5 -107.49998 z m 787.99998,47.5 v -112 h 34 34 v 112 112 h -34 -34 z"
       id="path2"/>
  </g>
</svg>
